<svg width="69.500000" height="99.332207" viewBox="0 0 69.5 99.3322" fill="none" xmlns="http://www.w3.org/2000/svg" xmlns:xlink="http://www.w3.org/1999/xlink">
	<desc>
			Created with Pixso.
	</desc>
	<defs/>
	<path id="Vector" d="M26.4484 99.082L1.06189 99.082C0.846558 99.082 0.640015 98.9965 0.487793 98.8442C0.335449 98.6919 0.25 98.4854 0.25 98.2701L0.25 54.753C0.25 54.6446 0.271973 54.5372 0.314941 54.4376L8.62854 34.66L8.62854 1.06188C8.62854 0.846558 8.71423 0.64006 8.86646 0.487801C9.01868 0.335541 9.2251 0.25 9.44043 0.25L18.0743 0.25C18.2897 0.25 18.4962 0.335541 18.6484 0.487801C18.8008 0.64006 18.8862 0.846558 18.8862 1.06188L18.8862 34.66L27.2 54.4376C27.2428 54.5372 27.2649 54.6446 27.2649 54.753L27.2649 98.2887C27.26 98.5016 27.1718 98.704 27.019 98.8524C26.8662 99.0008 26.6614 99.0833 26.4484 99.082ZM1.85986 97.4582L25.6226 97.4582L25.6226 54.9154L17.3088 35.1379C17.266 35.0382 17.2439 34.9309 17.2439 34.8224L17.2439 1.88304L10.2385 1.88304L10.2385 34.8224C10.2385 34.9309 10.2164 35.0382 10.1735 35.1379L1.85986 54.9154L1.85986 97.4582Z" fill="#AF6900" fill-opacity="1.000000" fill-rule="nonzero"/>
	<path id="Vector" d="M1.06189 99.082C0.846558 99.082 0.640015 98.9965 0.487793 98.8442C0.335449 98.6919 0.25 98.4854 0.25 98.2701L0.25 54.753C0.25 54.6446 0.271973 54.5372 0.314941 54.4376L8.62854 34.66L8.62854 1.06188C8.62854 0.846558 8.71423 0.64006 8.86646 0.487801C9.01868 0.335541 9.2251 0.25 9.44043 0.25L18.0743 0.25C18.2897 0.25 18.4962 0.335541 18.6484 0.487801C18.8008 0.64006 18.8862 0.846558 18.8862 1.06188L18.8862 34.66L27.2 54.4376C27.2428 54.5372 27.2649 54.6446 27.2649 54.753L27.2649 98.2887C27.26 98.5016 27.1718 98.704 27.019 98.8524C26.8662 99.0008 26.6614 99.0833 26.4484 99.082L1.06189 99.082ZM25.6226 97.4582L25.6226 54.9154L17.3088 35.1379C17.266 35.0382 17.2439 34.9309 17.2439 34.8224L17.2439 1.88304L10.2385 1.88304L10.2385 34.8224C10.2385 34.9309 10.2164 35.0382 10.1735 35.1379L1.85986 54.9154L1.85986 97.4582L25.6226 97.4582Z" stroke="#AF6900" stroke-opacity="1.000000" stroke-width="0.500000"/>
	<path id="Vector" d="M52.7024 99.0822L43.5908 99.0822C43.3754 99.0822 43.1689 98.9967 43.0166 98.8444C42.8643 98.6922 42.7789 98.4856 42.7789 98.2703C42.7789 98.055 42.8643 97.8485 43.0166 97.6962C43.1689 97.544 43.3754 97.4584 43.5908 97.4584L51.9137 97.4584L51.9137 75.4215C48.2975 73.5869 44.8087 71.5115 41.4705 69.2095C37.9957 66.8156 34.4188 61.8561 37.1143 51.8166C38.5385 46.5045 41.7906 38.033 41.8231 37.9495C41.8815 37.7964 41.9852 37.6647 42.1202 37.5719C42.2553 37.479 42.4155 37.4295 42.5794 37.4299L52.7256 37.4299C52.9409 37.4299 53.1475 37.5155 53.2997 37.6677C53.452 37.82 53.5375 38.0265 53.5375 38.2418C53.5375 38.4571 53.452 38.6636 53.2997 38.8159C53.1475 38.9682 52.9409 39.0537 52.7256 39.0537L43.1268 39.0537C42.4031 40.9698 39.8792 47.7618 38.6683 52.2387C37.3183 57.2724 36.8636 64.0737 42.3798 67.8733C45.7815 70.2285 49.3475 72.337 53.0504 74.1828C53.1898 74.2477 53.3076 74.3513 53.3899 74.4813C53.4722 74.6112 53.5153 74.7621 53.5143 74.9158L53.5143 98.3028C53.5059 98.5125 53.4167 98.7107 53.2653 98.856C53.114 99.0013 52.9122 99.0824 52.7024 99.0822Z" fill="#AF6900" fill-opacity="1.000000" fill-rule="nonzero"/>
	<path id="Vector" d="M43.5908 99.0822C43.3754 99.0822 43.1689 98.9967 43.0166 98.8444C42.8643 98.6922 42.7789 98.4856 42.7789 98.2703C42.7789 98.055 42.8643 97.8485 43.0166 97.6962C43.1689 97.544 43.3754 97.4584 43.5908 97.4584L51.9137 97.4584L51.9137 75.4215C48.2975 73.5869 44.8087 71.5115 41.4705 69.2095C37.9957 66.8156 34.4188 61.8561 37.1143 51.8166C38.5385 46.5045 41.7906 38.033 41.8231 37.9495C41.8815 37.7964 41.9852 37.6647 42.1202 37.5719C42.2553 37.479 42.4155 37.4295 42.5794 37.4299L52.7256 37.4299C52.9409 37.4299 53.1475 37.5155 53.2997 37.6677C53.452 37.82 53.5375 38.0265 53.5375 38.2418C53.5375 38.4571 53.452 38.6636 53.2997 38.8159C53.1475 38.9682 52.9409 39.0537 52.7256 39.0537L43.1268 39.0537C42.4031 40.9698 39.8792 47.7618 38.6683 52.2387C37.3183 57.2724 36.8636 64.0737 42.3798 67.8733C45.7815 70.2285 49.3475 72.337 53.0504 74.1828C53.1898 74.2477 53.3076 74.3513 53.3899 74.4813C53.4722 74.6112 53.5153 74.7621 53.5143 74.9158L53.5143 98.3028C53.5059 98.5125 53.4167 98.7107 53.2653 98.856C53.114 99.0013 52.9122 99.0824 52.7024 99.0822L43.5908 99.0822Z" stroke="#AF6900" stroke-opacity="1.000000" stroke-width="0.500000"/>
	<path id="Vector" d="M52.7023 75.7138C52.5182 75.7136 52.3397 75.6507 52.1959 75.5356C52.0522 75.4205 51.9518 75.26 51.9114 75.0803C51.871 74.9007 51.8928 74.7126 51.9733 74.547C52.0537 74.3814 52.1881 74.2481 52.3544 74.1689C56.0563 72.3215 59.6222 70.213 63.0249 67.8594C68.5364 64.0598 68.0864 57.2585 66.7363 52.2248C65.5348 47.7478 63.025 40.9558 62.278 39.0398L52.6977 39.0398C52.4824 39.0398 52.2759 38.9543 52.1237 38.802C51.9714 38.6497 51.8858 38.4432 51.8858 38.2279C51.8858 38.0126 51.9714 37.8061 52.1237 37.6538C52.2759 37.5016 52.4824 37.416 52.6977 37.416L62.8394 37.416C63.0039 37.4153 63.1648 37.4646 63.3007 37.5574C63.4366 37.6502 63.5409 37.7821 63.6002 37.9356C63.6326 38.0191 66.8802 46.4906 68.3045 51.8026C71 61.8422 67.423 66.8063 63.9528 69.1955C60.4746 71.5984 56.8297 73.7503 53.0457 75.635C52.9379 75.6846 52.821 75.7114 52.7023 75.7138Z" fill="#AF6900" fill-opacity="1.000000" fill-rule="nonzero"/>
	<path id="Vector" d="M52.1959 75.5356C52.0522 75.4205 51.9518 75.26 51.9114 75.0803C51.871 74.9007 51.8928 74.7126 51.9733 74.547C52.0537 74.3814 52.1881 74.2481 52.3544 74.1689C56.0563 72.3215 59.6222 70.213 63.0249 67.8594C68.5364 64.0598 68.0864 57.2585 66.7363 52.2248C65.5348 47.7478 63.025 40.9558 62.278 39.0398L52.6977 39.0398C52.4824 39.0398 52.2759 38.9543 52.1237 38.802C51.9714 38.6497 51.8858 38.4432 51.8858 38.2279C51.8858 38.0126 51.9714 37.8061 52.1237 37.6538C52.2759 37.5016 52.4824 37.416 52.6977 37.416L62.8394 37.416C63.0039 37.4153 63.1648 37.4646 63.3007 37.5574C63.4366 37.6502 63.5409 37.7821 63.6002 37.9356C63.6326 38.0191 66.8802 46.4906 68.3045 51.8026C71 61.8422 67.423 66.8063 63.9528 69.1955C60.4746 71.5984 56.8297 73.7503 53.0457 75.635C52.9379 75.6846 52.821 75.7114 52.7023 75.7138C52.5182 75.7136 52.3397 75.6507 52.1959 75.5356Z" stroke="#AF6900" stroke-opacity="1.000000" stroke-width="0.500000"/>
	<path id="Vector" d="M61.8326 99.082L52.7023 99.082C52.4869 99.082 52.2805 98.9965 52.1282 98.8442C51.976 98.692 51.8904 98.4855 51.8904 98.2701C51.8904 98.0548 51.976 97.8483 52.1282 97.6961C52.2805 97.5438 52.4869 97.4583 52.7023 97.4583L61.8326 97.4583C62.0479 97.4583 62.2543 97.5438 62.4066 97.6961C62.5588 97.8483 62.6445 98.0548 62.6445 98.2701C62.6445 98.4855 62.5588 98.692 62.4066 98.8442C62.2543 98.9965 62.0479 99.082 61.8326 99.082Z" fill="#AF6900" fill-opacity="1.000000" fill-rule="nonzero"/>
	<path id="Vector" d="M52.7023 99.082C52.4869 99.082 52.2805 98.9965 52.1282 98.8442C51.976 98.692 51.8904 98.4855 51.8904 98.2701C51.8904 98.0548 51.976 97.8483 52.1282 97.6961C52.2805 97.5438 52.4869 97.4583 52.7023 97.4583L61.8326 97.4583C62.0479 97.4583 62.2543 97.5438 62.4066 97.6961C62.5588 97.8483 62.6445 98.0548 62.6445 98.2701C62.6445 98.4855 62.5588 98.692 62.4066 98.8442C62.2543 98.9965 62.0479 99.082 61.8326 99.082L52.7023 99.082Z" stroke="#AF6900" stroke-opacity="1.000000" stroke-width="0.500000"/>
	<path id="Vector" d="M18.0743 11.8621L6.0769 11.8621C5.86157 11.8621 5.65515 11.7765 5.50293 11.6243C5.35059 11.472 5.26501 11.2655 5.26501 11.0502C5.26501 10.8348 5.35059 10.6283 5.50293 10.4761C5.65515 10.3238 5.86157 10.2383 6.0769 10.2383L18.0743 10.2383C18.2897 10.2383 18.4962 10.3238 18.6484 10.4761C18.8007 10.6283 18.8862 10.8348 18.8862 11.0502C18.8862 11.2655 18.8007 11.472 18.6484 11.6243C18.4962 11.7765 18.2897 11.8621 18.0743 11.8621Z" fill="#AF6900" fill-opacity="1.000000" fill-rule="nonzero"/>
	<path id="Vector" d="M6.0769 11.8621C5.86157 11.8621 5.65515 11.7765 5.50293 11.6243C5.35059 11.472 5.26501 11.2655 5.26501 11.0502C5.26501 10.8348 5.35059 10.6283 5.50293 10.4761C5.65515 10.3238 5.86157 10.2383 6.0769 10.2383L18.0743 10.2383C18.2897 10.2383 18.4962 10.3238 18.6484 10.4761C18.8007 10.6283 18.8862 10.8348 18.8862 11.0502C18.8862 11.2655 18.8007 11.472 18.6484 11.6243C18.4962 11.7765 18.2897 11.8621 18.0743 11.8621L6.0769 11.8621Z" stroke="#AF6900" stroke-opacity="1.000000" stroke-width="0.500000"/>
	<path id="Vector" d="M6.1792 90.7589C5.96387 90.7589 5.75732 90.6734 5.6051 90.5211C5.45276 90.3689 5.36731 90.1624 5.36731 89.947L5.36731 67.1771C5.36731 66.9618 5.45276 66.7553 5.6051 66.603C5.75732 66.4508 5.96387 66.3652 6.1792 66.3652C6.39453 66.3652 6.60095 66.4508 6.75317 66.603C6.90552 66.7553 6.99109 66.9618 6.99109 67.1771L6.99109 89.947C6.99109 90.1624 6.90552 90.3689 6.75317 90.5211C6.60095 90.6734 6.39453 90.7589 6.1792 90.7589Z" fill="#AF6900" fill-opacity="1.000000" fill-rule="nonzero"/>
	<path id="Vector" d="M5.6051 90.5211C5.45276 90.3689 5.36731 90.1624 5.36731 89.947L5.36731 67.1771C5.36731 66.9618 5.45276 66.7553 5.6051 66.603C5.75732 66.4508 5.96387 66.3652 6.1792 66.3652C6.39453 66.3652 6.60095 66.4508 6.75317 66.603C6.90552 66.7553 6.99109 66.9618 6.99109 67.1771L6.99109 89.947C6.99109 90.1624 6.90552 90.3689 6.75317 90.5211C6.60095 90.6734 6.39453 90.7589 6.1792 90.7589C5.96387 90.7589 5.75732 90.6734 5.6051 90.5211Z" stroke="#AF6900" stroke-opacity="1.000000" stroke-width="0.500000"/>
	<path id="Vector" d="M41.9762 59.1511C41.7609 59.1511 41.5543 59.0656 41.402 58.9133C41.2498 58.7611 41.1643 58.5546 41.1643 58.3393C41.1643 53.4819 44.9315 43.5258 45.0938 43.1037C45.1707 42.9025 45.3244 42.7401 45.5211 42.6522C45.7177 42.5643 45.9412 42.5582 46.1423 42.6351C46.3435 42.712 46.5059 42.8656 46.5938 43.0623C46.6816 43.2589 46.6878 43.4824 46.6109 43.6836C46.5738 43.781 42.7881 53.7788 42.7881 58.3393C42.7881 58.5546 42.7025 58.7611 42.5502 58.9133C42.3979 59.0656 42.1915 59.1511 41.9762 59.1511Z" fill="#AF6900" fill-opacity="1.000000" fill-rule="nonzero"/>
	<path id="Vector" d="M41.402 58.9133C41.2498 58.7611 41.1643 58.5546 41.1643 58.3393C41.1643 53.4819 44.9315 43.5258 45.0938 43.1037C45.1707 42.9025 45.3244 42.7401 45.5211 42.6522C45.7177 42.5643 45.9412 42.5582 46.1423 42.6351C46.3435 42.712 46.5059 42.8656 46.5938 43.0623C46.6816 43.2589 46.6878 43.4824 46.6109 43.6836C46.5738 43.781 42.7881 53.7788 42.7881 58.3393C42.7881 58.5546 42.7025 58.7611 42.5502 58.9133C42.3979 59.0656 42.1915 59.1511 41.9762 59.1511C41.7609 59.1511 41.5543 59.0656 41.402 58.9133Z" stroke="#AF6900" stroke-opacity="1.000000" stroke-width="0.500000"/>
</svg>
