<svg width="30.755890" height="18.795166" viewBox="0 0 30.7559 18.7952" fill="none" xmlns="http://www.w3.org/2000/svg" xmlns:xlink="http://www.w3.org/1999/xlink">
	<desc>
			Created with Pixso.
	</desc>
	<defs/>
	<path id="Vector" d="M0.85434 1.70874C0.382507 1.70874 0 1.32617 0 0.854248C0 0.382568 0.382507 0 0.85434 0L29.9016 0C30.3734 0 30.7559 0.382568 30.7559 0.854248C30.7559 1.32617 30.3734 1.70874 29.9016 1.70874L0.85434 1.70874ZM0.85434 10.252C0.382507 10.252 0 9.86938 0 9.39771C0 8.92578 0.382507 8.54321 0.85434 8.54321L29.9016 8.54321C30.3734 8.54321 30.7559 8.92578 30.7559 9.39771C30.7559 9.86938 30.3734 10.252 29.9016 10.252L0.85434 10.252ZM0.85434 18.7952C0.382507 18.7952 0 18.4128 0 17.9409C0 17.469 0.382507 17.0867 0.85434 17.0867L29.9016 17.0867C30.3734 17.0867 30.7559 17.469 30.7559 17.9409C30.7559 18.4128 30.3734 18.7952 29.9016 18.7952L0.85434 18.7952Z" fill="#623D2A" fill-opacity="1.000000" fill-rule="nonzero"/>
</svg>
