<svg width="9.095459" height="20.671509" viewBox="0 0 9.09546 20.6715" fill="none" xmlns="http://www.w3.org/2000/svg" xmlns:xlink="http://www.w3.org/1999/xlink">
	<desc>
			Created with Pixso.
	</desc>
	<defs/>
	<path id="Vector" d="M2.01917 4.00354C2.01917 4.52429 2.03625 7.07178 2.03625 7.07178L0 7.07178L0 10.3357L2.01917 10.3297L2.03625 20.6715L6.10889 20.6715L6.10889 10.3357L8.71716 10.3297C8.71716 10.3297 8.91418 8.89636 9.03601 7.07178C8.68604 7.07178 6.10889 7.07178 6.10889 7.07178C6.10889 7.07178 6.0426 4.81165 6.0426 4.45703C6.0426 4.10144 6.47961 3.62305 6.91162 3.62305L9.09546 3.62305C9.09546 3.14917 9.09546 1.51196 9.09546 0C7.97046 0 6.69067 0 6.12622 0C1.92004 0 2.01917 3.4834 2.01917 4.00354Z" fill="#AF6900" fill-opacity="1.000000" fill-rule="nonzero"/>
</svg>
