<svg width="87.723633" height="95.645020" viewBox="0 0 87.7236 95.645" fill="none" xmlns="http://www.w3.org/2000/svg" xmlns:xlink="http://www.w3.org/1999/xlink">
	<desc>
			Created with Pixso.
	</desc>
	<defs/>
	<path id="Vector" d="M65.9436 95.373C65.806 95.374 65.6705 95.3382 65.5513 95.2692C65.4322 95.2002 65.3337 95.1006 65.2661 94.9807C65.2151 94.8918 65.1821 94.7936 65.1691 94.6919C65.156 94.5902 65.1631 94.4869 65.1901 94.388C65.2169 94.2891 65.2632 94.1964 65.3259 94.1153C65.3887 94.0342 65.4667 93.9663 65.5558 93.9154L75.1969 88.4107L68.2748 76.2959C62.9619 76.5662 57.6367 76.4784 52.3356 76.0329C46.9557 75.5872 39.8241 72.32 36.4277 59.394C34.6136 52.4852 32.8217 40.8295 32.8038 40.7136C32.7791 40.558 32.8026 40.3986 32.8711 40.2567C32.9396 40.1149 33.0499 39.9974 33.1872 39.9202L44.6469 33.368C44.7347 33.2997 44.8362 33.251 44.9445 33.2252C45.0527 33.1993 45.1652 33.1969 45.2745 33.2182C45.3837 33.2395 45.4872 33.2839 45.5779 33.3484C45.6686 33.413 45.7444 33.4962 45.8002 33.5925C45.8561 33.6888 45.8907 33.7959 45.9017 33.9067C45.9127 34.0175 45.8999 34.1293 45.8641 34.2347C45.8283 34.3401 45.7704 34.4366 45.6942 34.5178C45.618 34.5989 45.5253 34.6628 45.4224 34.7052L34.4263 40.9899C34.7963 43.3389 36.3608 52.9844 37.9386 58.9794C39.6859 65.6297 43.6261 73.7151 52.4648 74.4595C57.8487 74.9224 63.2588 74.9999 68.6537 74.6913C68.8004 74.68 68.9471 74.7104 69.0773 74.779C69.2075 74.8476 69.3156 74.9516 69.389 75.079L76.9575 88.3126C77.06 88.4925 77.0872 88.7056 77.0332 88.9055C76.9776 89.1046 76.8466 89.2741 76.6678 89.3779L66.3492 95.2704C66.2258 95.3409 66.0856 95.3764 65.9436 95.373Z" fill="#AF6900" fill-opacity="1.000000" fill-rule="nonzero"/>
	<path id="Vector" d="M65.5513 95.2692C65.4322 95.2002 65.3337 95.1006 65.2661 94.9807C65.2151 94.8918 65.1821 94.7936 65.1691 94.6919C65.156 94.5902 65.1631 94.4869 65.1901 94.388C65.2169 94.2891 65.2632 94.1964 65.3259 94.1153C65.3887 94.0342 65.4667 93.9663 65.5558 93.9154L75.1969 88.4107L68.2748 76.2959C62.9619 76.5662 57.6367 76.4784 52.3356 76.0329C46.9557 75.5872 39.8241 72.32 36.4277 59.394C34.6136 52.4852 32.8217 40.8295 32.8038 40.7136C32.7791 40.558 32.8026 40.3986 32.8711 40.2567C32.9396 40.1149 33.0499 39.9974 33.1872 39.9202L44.6469 33.368C44.7347 33.2997 44.8362 33.251 44.9445 33.2252C45.0527 33.1993 45.1652 33.1969 45.2745 33.2182C45.3837 33.2395 45.4872 33.2839 45.5779 33.3484C45.6686 33.413 45.7444 33.4962 45.8002 33.5925C45.8561 33.6888 45.8907 33.7959 45.9017 33.9067C45.9127 34.0175 45.8999 34.1293 45.8641 34.2347C45.8283 34.3401 45.7704 34.4366 45.6942 34.5178C45.618 34.5989 45.5253 34.6628 45.4224 34.7052L34.4263 40.9899C34.7963 43.3389 36.3608 52.9844 37.9386 58.9794C39.6859 65.6297 43.6261 73.7151 52.4648 74.4595C57.8487 74.9224 63.2588 74.9999 68.6537 74.6913C68.8004 74.68 68.9471 74.7104 69.0773 74.779C69.2075 74.8476 69.3156 74.9516 69.389 75.079L76.9575 88.3126C77.06 88.4925 77.0872 88.7056 77.0332 88.9055C76.9776 89.1046 76.8466 89.2741 76.6678 89.3779L66.3492 95.2704C66.2258 95.3409 66.0856 95.3764 65.9436 95.373C65.806 95.374 65.6705 95.3382 65.5513 95.2692Z" stroke="#AF6900" stroke-opacity="1.000000" stroke-width="0.543652"/>
	<path id="Vector" d="M68.7116 76.265C68.5524 76.2658 68.3967 76.2175 68.2659 76.1268C68.0963 76.0081 67.9805 75.8272 67.9438 75.6234C67.907 75.4197 67.9523 75.2097 68.0698 75.0392C71.0759 70.549 73.7571 65.8494 76.0928 60.9766C79.9395 52.9803 74.974 45.4832 70.1334 40.6025C65.7698 36.2032 58.2548 29.9585 56.4185 28.4431L45.4224 34.7234C45.2479 34.7952 45.0533 34.8013 44.8747 34.7406C44.6961 34.6799 44.5454 34.5566 44.4507 34.3934C44.3561 34.2302 44.3239 34.0382 44.3599 33.853C44.3959 33.6678 44.4979 33.502 44.6469 33.3862L56.1109 26.8385C56.2489 26.7575 56.4084 26.7209 56.5679 26.7337C56.7273 26.7464 56.879 26.8079 57.0024 26.9098C57.0959 26.9855 66.2244 34.447 71.2656 39.5193C80.6793 49.0133 79.8636 56.8046 77.5057 61.6719C75.1375 66.6167 72.4144 71.3836 69.3578 75.9352C69.2855 76.039 69.1887 76.1233 69.0759 76.1808C68.9632 76.2384 68.8381 76.2673 68.7116 76.265Z" fill="#AF6900" fill-opacity="1.000000" fill-rule="nonzero"/>
	<path id="Vector" d="M68.2659 76.1268C68.0963 76.0081 67.9805 75.8272 67.9438 75.6234C67.907 75.4197 67.9523 75.2097 68.0698 75.0392C71.0759 70.549 73.7571 65.8494 76.0928 60.9766C79.9395 52.9803 74.974 45.4832 70.1334 40.6025C65.7698 36.2032 58.2548 29.9585 56.4185 28.4431L45.4224 34.7234C45.2479 34.7952 45.0533 34.8013 44.8747 34.7406C44.6961 34.6799 44.5454 34.5566 44.4507 34.3934C44.3561 34.2302 44.3239 34.0382 44.3599 33.853C44.3959 33.6678 44.4979 33.502 44.6469 33.3862L56.1109 26.8385C56.2489 26.7575 56.4084 26.7209 56.5679 26.7337C56.7273 26.7464 56.879 26.8079 57.0024 26.9098C57.0959 26.9855 66.2244 34.447 71.2656 39.5193C80.6793 49.0133 79.8636 56.8046 77.5057 61.6719C75.1375 66.6167 72.4144 71.3836 69.3578 75.9352C69.2855 76.039 69.1887 76.1233 69.0759 76.1808C68.9632 76.2384 68.8381 76.2673 68.7116 76.265C68.5524 76.2658 68.3967 76.2175 68.2659 76.1268Z" stroke="#AF6900" stroke-opacity="1.000000" stroke-width="0.543652"/>
	<path id="Vector" d="M76.2621 89.4803C76.09 89.4806 75.9226 89.4239 75.786 89.3191C75.6495 89.2142 75.5514 89.0672 75.5071 88.9008C75.4629 88.7345 75.4749 88.5581 75.5413 88.3993C75.6077 88.2405 75.7249 88.1081 75.8744 88.0228L86.1929 82.1258C86.2808 82.0575 86.3823 82.0088 86.4905 81.983C86.5988 81.9571 86.7114 81.9548 86.8207 81.976C86.9299 81.9973 87.0334 82.0417 87.1241 82.1063C87.2147 82.1708 87.2905 82.254 87.3464 82.3503C87.4022 82.4466 87.4368 82.5537 87.4478 82.6645C87.4588 82.7753 87.446 82.8871 87.4102 82.9925C87.3744 83.0979 87.3165 83.1944 87.2403 83.2756C87.1641 83.3567 87.0714 83.4206 86.9684 83.463L76.65 89.3599C76.5327 89.4316 76.3994 89.4729 76.2621 89.4803Z" fill="#AF6900" fill-opacity="1.000000" fill-rule="nonzero"/>
	<path id="Vector" d="M75.786 89.3191C75.6495 89.2142 75.5514 89.0672 75.5071 88.9008C75.4629 88.7345 75.4749 88.5581 75.5413 88.3993C75.6077 88.2405 75.7249 88.1081 75.8744 88.0228L86.1929 82.1258C86.2808 82.0575 86.3823 82.0088 86.4905 81.983C86.5988 81.9571 86.7114 81.9548 86.8207 81.976C86.9299 81.9973 87.0334 82.0417 87.1241 82.1063C87.2147 82.1708 87.2905 82.254 87.3464 82.3503C87.4022 82.4466 87.4368 82.5537 87.4478 82.6645C87.4588 82.7753 87.446 82.8871 87.4102 82.9925C87.3744 83.0979 87.3165 83.1944 87.2403 83.2756C87.1641 83.3567 87.0714 83.4206 86.9684 83.463L76.65 89.3599C76.5327 89.4316 76.3994 89.4729 76.2621 89.4803C76.09 89.4806 75.9226 89.4239 75.786 89.3191Z" stroke="#AF6900" stroke-opacity="1.000000" stroke-width="0.543652"/>
	<path id="Vector" d="M13.5218 40.7583C13.408 40.7587 13.2954 40.7344 13.192 40.687C13.0989 40.6443 13.0153 40.5836 12.9458 40.5084C12.8763 40.4332 12.8223 40.345 12.7871 40.2489C12.7519 40.1527 12.7361 40.0506 12.7405 39.9483C12.745 39.846 12.7697 39.7456 12.8131 39.6529C13.9453 37.2059 16.4814 35.8999 18.5629 35.0307L19.5035 34.6519C21.3532 33.903 23.1049 33.1988 24.4064 31.8973C25.0604 31.2215 25.5588 30.4111 25.8667 29.5226C26.1747 28.6341 26.2849 27.6891 26.1894 26.7536C26.0021 24.9707 24.9993 23.7494 23.8359 22.3543L23.1984 21.5832C22.1822 20.3129 21.1749 18.998 20.2032 17.7277C19.5257 16.8362 18.8661 15.9447 18.1663 15.0889L7.54016 1.53442C7.47693 1.45365 7.43024 1.36121 7.40271 1.26239C7.37524 1.16357 7.36755 1.0603 7.37994 0.958488C7.3924 0.856667 7.42462 0.758301 7.4751 0.668983C7.52551 0.579666 7.59314 0.50116 7.67389 0.437943C7.7547 0.374733 7.84711 0.328041 7.94592 0.300545C8.04474 0.273056 8.14795 0.265289 8.24976 0.27771C8.35156 0.290123 8.45001 0.322479 8.53937 0.37291C8.62866 0.423347 8.70715 0.490883 8.77039 0.571655L19.3876 14.1306C20.074 15.0221 20.7514 15.9136 21.4334 16.7783C22.4006 18.0441 23.3991 19.3501 24.4064 20.6026L25.026 21.3558C26.2428 22.8134 27.4953 24.3199 27.7316 26.5887C27.8496 27.7536 27.7113 28.9302 27.3263 30.0359C26.9413 31.1416 26.319 32.1497 25.5029 32.9893C23.9964 34.5271 22.0084 35.3249 20.0917 36.1094L19.1647 36.4882C17.3461 37.2415 15.1531 38.3648 14.2305 40.3215C14.1666 40.4545 14.0658 40.5663 13.9402 40.6437C13.8146 40.7212 13.6693 40.7609 13.5218 40.7583Z" fill="#AF6900" fill-opacity="1.000000" fill-rule="nonzero"/>
	<path id="Vector" d="M13.192 40.687C13.0989 40.6443 13.0153 40.5836 12.9458 40.5084C12.8763 40.4332 12.8223 40.345 12.7871 40.2489C12.7519 40.1527 12.7361 40.0506 12.7405 39.9483C12.745 39.846 12.7697 39.7456 12.8131 39.6529C13.9453 37.2059 16.4814 35.8999 18.5629 35.0307L19.5035 34.6519C21.3532 33.903 23.1049 33.1988 24.4064 31.8973C25.0604 31.2215 25.5588 30.4111 25.8667 29.5226C26.1747 28.6341 26.2849 27.6891 26.1894 26.7536C26.0021 24.9707 24.9993 23.7494 23.8359 22.3543L23.1984 21.5832C22.1822 20.3129 21.1749 18.998 20.2032 17.7277C19.5257 16.8362 18.8661 15.9447 18.1663 15.0889L7.54016 1.53442C7.47693 1.45365 7.43024 1.36121 7.40271 1.26239C7.37524 1.16357 7.36755 1.0603 7.37994 0.958488C7.3924 0.856667 7.42462 0.758301 7.4751 0.668983C7.52551 0.579666 7.59314 0.50116 7.67389 0.437943C7.7547 0.374733 7.84711 0.328041 7.94592 0.300545C8.04474 0.273056 8.14795 0.265289 8.24976 0.27771C8.35156 0.290123 8.45001 0.322479 8.53937 0.37291C8.62866 0.423347 8.70715 0.490883 8.77039 0.571655L19.3876 14.1306C20.074 15.0221 20.7514 15.9136 21.4334 16.7783C22.4006 18.0441 23.3991 19.3501 24.4064 20.6026L25.026 21.3558C26.2428 22.8134 27.4953 24.3199 27.7316 26.5887C27.8496 27.7536 27.7113 28.9302 27.3263 30.0359C26.9413 31.1416 26.319 32.1497 25.5029 32.9893C23.9964 34.5271 22.0084 35.3249 20.0917 36.1094L19.1647 36.4882C17.3461 37.2415 15.1531 38.3648 14.2305 40.3215C14.1666 40.4545 14.0658 40.5663 13.9402 40.6437C13.8146 40.7212 13.6693 40.7609 13.5218 40.7583C13.408 40.7587 13.2954 40.7344 13.192 40.687Z" stroke="#AF6900" stroke-opacity="1.000000" stroke-width="0.543652"/>
	<path id="Vector" d="M5.77502 35.9044C5.31549 35.904 4.85754 35.8487 4.41113 35.7395C3.61908 35.5458 2.8808 35.1762 2.25116 34.6581C1.62152 34.14 1.1167 33.4867 0.774109 32.7468C0.43158 32.0069 0.260132 31.1993 0.272461 30.384C0.28479 29.5687 0.48053 28.7666 0.845276 28.0374C0.888367 27.9416 0.950378 27.8554 1.02759 27.7841C1.10474 27.7129 1.19543 27.6579 1.29437 27.6226C1.39331 27.5872 1.49835 27.5723 1.60321 27.5785C1.70807 27.5848 1.81061 27.6122 1.90466 27.6591C1.99866 27.7059 2.08234 27.7713 2.15051 27.8512C2.21863 27.9312 2.26984 28.0241 2.30121 28.1244C2.33258 28.2246 2.34332 28.3302 2.33289 28.4347C2.32239 28.5393 2.29108 28.6406 2.24048 28.7327C1.97919 29.2523 1.8385 29.8243 1.82904 30.4058C1.81958 30.9874 1.94153 31.5635 2.18573 32.0914C2.42999 32.6193 2.79016 33.0852 3.23956 33.4545C3.6889 33.8237 4.21588 34.0868 4.78107 34.224C7.0097 34.7678 9.31409 33.3326 11.2886 31.8394C13.4771 30.1947 15.9376 28.3405 18.866 28.5945C18.9681 28.6033 19.0676 28.6321 19.1586 28.6793C19.2496 28.7265 19.3303 28.7912 19.3964 28.8696C19.4623 28.948 19.5123 29.0387 19.5433 29.1364C19.5742 29.2341 19.5856 29.337 19.5769 29.4392C19.5681 29.5413 19.5393 29.6407 19.4921 29.7317C19.4449 29.8227 19.3803 29.9036 19.3019 29.9696C19.2234 30.0356 19.1328 30.0855 19.0351 30.1165C18.9373 30.1475 18.8345 30.1589 18.7323 30.1501C16.4146 29.9495 14.3063 31.5408 12.2559 33.0785C10.3259 34.5182 8.11511 35.9044 5.77502 35.9044Z" fill="#AF6900" fill-opacity="1.000000" fill-rule="nonzero"/>
	<path id="Vector" d="M4.41113 35.7395C3.61908 35.5458 2.8808 35.1762 2.25116 34.6581C1.62152 34.14 1.1167 33.4867 0.774109 32.7468C0.43158 32.0069 0.260132 31.1993 0.272461 30.384C0.28479 29.5687 0.48053 28.7666 0.845276 28.0374C0.888367 27.9416 0.950378 27.8554 1.02759 27.7841C1.10474 27.7129 1.19543 27.6579 1.29437 27.6226C1.39331 27.5872 1.49835 27.5723 1.60321 27.5785C1.70807 27.5848 1.81061 27.6122 1.90466 27.6591C1.99866 27.7059 2.08234 27.7713 2.15051 27.8512C2.21863 27.9312 2.26984 28.0241 2.30121 28.1244C2.33258 28.2246 2.34332 28.3302 2.33289 28.4347C2.32239 28.5393 2.29108 28.6406 2.24048 28.7327C1.97919 29.2523 1.8385 29.8243 1.82904 30.4058C1.81958 30.9874 1.94153 31.5635 2.18573 32.0914C2.42999 32.6193 2.79016 33.0852 3.23956 33.4545C3.6889 33.8237 4.21588 34.0868 4.78107 34.224C7.0097 34.7678 9.31409 33.3326 11.2886 31.8394C13.4771 30.1947 15.9376 28.3405 18.866 28.5945C18.9681 28.6033 19.0676 28.6321 19.1586 28.6793C19.2496 28.7265 19.3303 28.7912 19.3964 28.8696C19.4623 28.948 19.5123 29.0387 19.5433 29.1364C19.5742 29.2341 19.5857 29.337 19.5769 29.4392C19.5681 29.5413 19.5393 29.6407 19.4921 29.7317C19.4449 29.8227 19.3803 29.9036 19.3019 29.9696C19.2234 30.0356 19.1328 30.0855 19.0351 30.1165C18.9373 30.1475 18.8345 30.1589 18.7323 30.1501C16.4146 29.9495 14.3063 31.5408 12.2559 33.0785C10.3259 34.5182 8.11511 35.9044 5.77502 35.9044C5.31549 35.904 4.85754 35.8487 4.41113 35.7395Z" stroke="#AF6900" stroke-opacity="1.000000" stroke-width="0.543652"/>
	<path id="Vector" d="M43.4924 60.5352C43.3311 60.5344 43.1739 60.484 43.0423 60.3906C42.9107 60.2973 42.8111 60.1657 42.757 60.0137C40.359 53.2743 38.6697 43.5842 38.6563 43.4862C38.6208 43.2822 38.6678 43.0726 38.7869 42.9033C38.906 42.7341 39.0876 42.619 39.2915 42.5836C39.4954 42.5481 39.7051 42.5951 39.8743 42.7142C40.0436 42.8333 40.1586 43.0148 40.194 43.2187C40.194 43.3168 41.8745 52.8776 44.2279 59.4922C44.268 59.61 44.2796 59.7356 44.2618 59.8588C44.2441 59.982 44.1974 60.0993 44.1257 60.201C44.054 60.3027 43.9593 60.386 43.8492 60.4441C43.7391 60.5022 43.6168 60.5334 43.4924 60.5352Z" fill="#AF6900" fill-opacity="1.000000" fill-rule="nonzero"/>
	<path id="Vector" d="M43.0423 60.3906C42.9107 60.2973 42.8111 60.1657 42.757 60.0137C40.359 53.2743 38.6697 43.5842 38.6563 43.4862C38.6208 43.2822 38.6678 43.0726 38.7869 42.9033C38.906 42.7341 39.0876 42.619 39.2915 42.5836C39.4954 42.5481 39.7051 42.5951 39.8743 42.7142C40.0436 42.8333 40.1586 43.0148 40.194 43.2187C40.194 43.3168 41.8745 52.8776 44.2279 59.4922C44.268 59.61 44.2796 59.7356 44.2618 59.8588C44.2441 59.982 44.1974 60.0993 44.1257 60.201C44.054 60.3027 43.9593 60.386 43.8492 60.4441C43.7391 60.5022 43.6168 60.5334 43.4924 60.5352C43.3311 60.5344 43.1739 60.484 43.0423 60.3906Z" stroke="#AF6900" stroke-opacity="1.000000" stroke-width="0.543652"/>
	<path id="Vector" d="M44.9143 68.8614C43.3243 68.8634 41.7456 68.592 40.2475 68.0591C40.0723 68.0006 39.9236 67.8819 39.8278 67.7241C39.7319 67.5662 39.6951 67.3795 39.7239 67.1971C39.7528 67.0147 39.8455 66.8485 39.9855 66.728C40.1254 66.6075 40.3035 66.5406 40.4882 66.5391C40.5778 66.5383 40.6669 66.5534 40.7512 66.5837C42.3793 67.1725 44.1144 67.4063 45.8403 67.2695C47.5662 67.1327 49.2428 66.6283 50.7578 65.7903C53.1959 64.3952 55.01 62.2512 56.9311 59.9959C58.1815 58.4417 59.5462 56.9831 61.0139 55.6322C64.2395 52.8178 68.2758 51.1009 72.5404 50.7292C74.3626 50.579 76.1968 50.6794 77.9916 51.0279C78.0923 51.0472 78.1882 51.0862 78.2738 51.1425C78.3594 51.1989 78.433 51.2716 78.4905 51.3564C78.5481 51.4413 78.5884 51.5366 78.6091 51.637C78.6298 51.7374 78.6304 51.8409 78.6111 51.9416C78.5918 52.0423 78.5529 52.1382 78.4966 52.2238C78.4402 52.3094 78.3674 52.3831 78.2826 52.4406C78.1978 52.4982 78.1024 52.5384 78.002 52.5591C77.9016 52.5798 77.798 52.5805 77.6974 52.5612C76.0437 52.2379 74.3532 52.1449 72.674 52.2848C68.741 52.6265 65.0184 54.2092 62.0435 56.8045C60.637 58.1067 59.3276 59.5101 58.1256 61.0032C56.2001 63.2764 54.2121 65.6298 51.5378 67.1631C49.5144 68.2937 47.232 68.8789 44.9143 68.8614Z" fill="#AF6900" fill-opacity="1.000000" fill-rule="nonzero"/>
	<path id="Vector" d="M40.2475 68.0591C40.0723 68.0006 39.9236 67.8819 39.8278 67.7241C39.7319 67.5662 39.6951 67.3795 39.7239 67.1971C39.7528 67.0147 39.8455 66.8485 39.9855 66.728C40.1254 66.6075 40.3035 66.5406 40.4882 66.5391C40.5778 66.5383 40.6669 66.5534 40.7512 66.5837C42.3793 67.1725 44.1144 67.4063 45.8403 67.2695C47.5662 67.1327 49.2428 66.6283 50.7578 65.7903C53.1959 64.3952 55.01 62.2512 56.9311 59.9959C58.1815 58.4417 59.5462 56.9831 61.0139 55.6322C64.2395 52.8178 68.2758 51.1009 72.5404 50.7292C74.3626 50.579 76.1968 50.6794 77.9916 51.0279C78.0923 51.0472 78.1882 51.0862 78.2738 51.1425C78.3594 51.1989 78.433 51.2716 78.4905 51.3564C78.5481 51.4413 78.5884 51.5366 78.6091 51.637C78.6298 51.7374 78.6304 51.8409 78.6111 51.9416C78.5918 52.0423 78.5529 52.1382 78.4966 52.2238C78.4402 52.3094 78.3674 52.3831 78.2826 52.4406C78.1978 52.4982 78.1024 52.5384 78.002 52.5591C77.9016 52.5798 77.798 52.5805 77.6974 52.5612C76.0437 52.2379 74.3532 52.1449 72.674 52.2848C68.741 52.6265 65.0184 54.2092 62.0435 56.8045C60.637 58.1067 59.3276 59.5101 58.1256 61.0032C56.2001 63.2764 54.2121 65.6298 51.5378 67.1631C49.5144 68.2937 47.232 68.8789 44.9143 68.8614C43.3243 68.8634 41.7456 68.592 40.2475 68.0591Z" stroke="#AF6900" stroke-opacity="1.000000" stroke-width="0.543652"/>
</svg>
