<svg width="93.266174" height="70.787430" viewBox="0 0 93.2662 70.7874" fill="none" xmlns="http://www.w3.org/2000/svg" xmlns:xlink="http://www.w3.org/1999/xlink">
	<desc>
			Created with Pixso.
	</desc>
	<defs/>
	<path id="Vector" d="M47.2362 70.5374C47.08 70.5367 46.9277 70.4885 46.7997 70.3992C46.6716 70.3099 46.5737 70.1838 46.519 70.0375C46.1713 69.0595 45.8669 68.0684 45.6149 67.06C42.7069 59.0316 36.3346 52.2376 27.7498 48.1256C27.6536 48.0866 27.5662 48.0283 27.4933 47.9543C27.4204 47.8803 27.3635 47.7921 27.3259 47.6953C27.2885 47.5984 27.2712 47.4949 27.2753 47.3911C27.2793 47.2872 27.3044 47.1854 27.3492 47.0917C27.3942 46.998 27.4579 46.9145 27.5363 46.8464C27.6147 46.7782 27.7062 46.7269 27.8052 46.6955C27.9042 46.6641 28.0087 46.6532 28.1119 46.6637C28.2153 46.6742 28.3154 46.7057 28.4061 46.7563C35.5175 50.1598 41.1768 55.3411 44.728 61.5352C44.2455 55.4472 45.5077 49.3477 48.3669 43.9512C51.226 38.5547 55.5638 34.0846 60.8719 31.0646C60.9576 30.998 61.0566 30.9505 61.1622 30.9253C61.2678 30.9001 61.3775 30.8978 61.484 30.9185C61.5906 30.9393 61.6915 30.9826 61.7799 31.0456C61.8683 31.1085 61.9423 31.1897 61.9967 31.2836C62.0511 31.3775 62.085 31.482 62.0957 31.59C62.1064 31.698 62.0939 31.807 62.059 31.9098C62.0241 32.0126 61.9677 32.1068 61.8934 32.1859C61.819 32.265 61.7286 32.3273 61.6282 32.3686C55.7924 35.694 51.2083 40.8416 48.5789 47.0223C45.9493 53.203 45.4197 60.0755 47.071 66.5862C47.4188 67.5642 47.723 68.5596 47.9752 69.568C48.0214 69.7569 47.9935 69.9563 47.8973 70.1252C47.8011 70.2942 47.6438 70.4199 47.4579 70.4765C47.3881 70.5097 47.3131 70.5303 47.2362 70.5374Z" fill="#AF6900" fill-opacity="1.000000" fill-rule="nonzero"/>
	<path id="Vector" d="M46.7997 70.3992C46.6716 70.3099 46.5737 70.1838 46.519 70.0375C46.1713 69.0595 45.8669 68.0684 45.6149 67.06C42.7069 59.0316 36.3346 52.2376 27.7498 48.1256C27.6536 48.0866 27.5662 48.0283 27.4933 47.9543C27.4204 47.8803 27.3635 47.7921 27.3259 47.6953C27.2885 47.5984 27.2712 47.4949 27.2753 47.3911C27.2793 47.2872 27.3044 47.1853 27.3492 47.0917C27.3942 46.998 27.4579 46.9145 27.5363 46.8464C27.6147 46.7782 27.7062 46.7269 27.8052 46.6955C27.9042 46.6641 28.0087 46.6532 28.1119 46.6637C28.2153 46.6742 28.3154 46.7057 28.4061 46.7563C35.5175 50.1598 41.1768 55.3411 44.728 61.5352C44.2455 55.4472 45.5077 49.3477 48.3669 43.9512C51.226 38.5547 55.5638 34.0846 60.8719 31.0646C60.9576 30.998 61.0566 30.9505 61.1622 30.9253C61.2678 30.9001 61.3775 30.8978 61.484 30.9185C61.5906 30.9393 61.6915 30.9826 61.7799 31.0456C61.8683 31.1085 61.9423 31.1897 61.9967 31.2836C62.0511 31.3775 62.085 31.482 62.0957 31.59C62.1064 31.698 62.0939 31.807 62.059 31.9098C62.0241 32.0126 61.9677 32.1068 61.8934 32.1859C61.819 32.265 61.7286 32.3273 61.6282 32.3686C55.7924 35.694 51.2083 40.8416 48.5789 47.0223C45.9493 53.203 45.4197 60.0755 47.071 66.5862C47.4188 67.5642 47.723 68.5596 47.9752 69.568C48.0214 69.7569 47.9935 69.9563 47.8973 70.1252C47.8011 70.2942 47.6438 70.4199 47.4579 70.4765C47.3881 70.5097 47.3131 70.5303 47.2362 70.5374C47.08 70.5367 46.9277 70.4885 46.7997 70.3992Z" stroke="#AF6900" stroke-opacity="1.000000" stroke-width="0.500000"/>
	<path id="Vector" d="M36.1824 52.6073C35.8363 52.608 35.4907 52.5847 35.1479 52.5378C35.0435 52.5317 34.9413 52.5041 34.848 52.4568C34.7548 52.4094 34.6722 52.3434 34.6056 52.2627C34.5391 52.182 34.4897 52.0884 34.4609 51.9879C34.432 51.8873 34.4244 51.7818 34.4381 51.6781C34.4519 51.5744 34.4869 51.4746 34.541 51.3851C34.5951 51.2955 34.6671 51.2181 34.7526 51.1576C34.8379 51.0971 34.9348 51.055 35.0372 51.0337C35.1396 51.0124 35.2455 51.0124 35.3479 51.0338C36.5961 51.1804 37.8608 50.9919 39.0121 50.4877C40.1633 49.9835 41.1597 49.1817 41.8984 48.1649C42.0199 48.0166 42.1929 47.9196 42.3828 47.8934C42.5728 47.8671 42.7656 47.9136 42.9229 48.0235C43.08 48.1334 43.1898 48.2986 43.2303 48.486C43.2709 48.6734 43.2391 48.8692 43.1415 49.0343C42.3431 50.1339 41.2971 51.0303 40.0881 51.651C38.8793 52.2717 37.5413 52.5993 36.1824 52.6073Z" fill="#AF6900" fill-opacity="1.000000" fill-rule="nonzero"/>
	<path id="Vector" d="M35.1479 52.5378C35.0435 52.5317 34.9413 52.5041 34.848 52.4568C34.7548 52.4094 34.6722 52.3434 34.6056 52.2627C34.5391 52.182 34.4897 52.0884 34.4609 51.9879C34.432 51.8873 34.4244 51.7818 34.4381 51.6781C34.4519 51.5744 34.4869 51.4746 34.541 51.3851C34.5951 51.2955 34.6671 51.2181 34.7526 51.1576C34.8379 51.0971 34.9348 51.055 35.0372 51.0337C35.1396 51.0124 35.2455 51.0124 35.3479 51.0338C36.5961 51.1804 37.8608 50.9919 39.0121 50.4877C40.1633 49.9835 41.1597 49.1817 41.8984 48.1649C42.0199 48.0166 42.1929 47.9196 42.3828 47.8934C42.5728 47.8671 42.7656 47.9136 42.9229 48.0235C43.08 48.1334 43.1898 48.2986 43.2303 48.486C43.2709 48.6734 43.2391 48.8692 43.1415 49.0343C42.3431 50.1339 41.2971 51.0303 40.0881 51.651C38.8793 52.2717 37.5413 52.5993 36.1824 52.6073C35.8363 52.608 35.4907 52.5847 35.1479 52.5378Z" stroke="#AF6900" stroke-opacity="1.000000" stroke-width="0.500000"/>
	<path id="Vector" d="M20.9514 68.0683C19.9944 68.0681 19.0396 67.9764 18.1 67.7945C17.9348 67.7621 17.7849 67.6758 17.6741 67.5492C17.5631 67.4225 17.4973 67.2627 17.4871 67.0947C17.3115 64.5326 17.798 61.9684 18.8998 59.6487C15.6093 60.9266 12.4708 61.1048 9.54553 60.1746C7.57324 59.545 5.74451 58.5325 4.16394 57.1952C2.5835 55.8578 1.28223 54.2219 0.334839 52.381C0.267456 52.2507 0.239502 52.1038 0.25415 51.9579C0.268799 51.8121 0.325439 51.6736 0.417358 51.5594C2.50818 48.9514 4.45117 46.8736 7.13745 45.1349C8.9325 43.9382 11.0129 43.2393 13.1664 43.1093C10.6461 41.1058 8.63293 38.5372 7.28955 35.6112C5.46228 31.5837 5.03528 27.0605 6.07678 22.7623C6.11194 22.6207 6.18652 22.4919 6.29199 22.3911C6.39734 22.2903 6.52942 22.2215 6.67236 22.1928C10.467 21.4582 14.9312 22.2146 18.9519 24.2706C22.678 26.1852 25.6581 29.2892 27.4193 33.0901C27.5042 33.2734 27.5126 33.4829 27.4429 33.6724C27.3732 33.8619 27.2311 34.016 27.0477 34.1007C26.8644 34.1855 26.655 34.1939 26.4655 34.1242C26.2759 34.0545 26.1217 33.9124 26.037 33.7291C24.4202 30.2362 21.6835 27.3831 18.2607 25.6224C14.7139 23.8098 10.8062 23.0839 7.44617 23.6055C6.62939 27.4309 7.05884 31.4174 8.67188 34.9809C10.3862 38.7285 13.2892 41.8057 16.9307 43.7353C17.1031 43.8254 17.2347 43.9783 17.298 44.1624C17.3612 44.3466 17.3514 44.548 17.2706 44.7251C17.1898 44.9023 17.0442 45.0417 16.8636 45.1147C16.6832 45.1877 16.4816 45.1887 16.3004 45.1175C13.8575 44.1352 10.7496 44.622 7.98071 46.4215C5.59875 47.9646 3.81653 49.8294 1.93433 52.1288C3.698 55.2734 6.58655 57.6339 10.0194 58.7359C13.1968 59.74 16.7003 59.2575 20.4515 57.2971C20.6028 57.2181 20.7761 57.1923 20.9438 57.2238C21.1115 57.2552 21.2637 57.3421 21.3761 57.4705C21.4884 57.5989 21.5543 57.7613 21.5632 57.9317C21.5721 58.1021 21.5236 58.2705 21.4252 58.4099C19.7834 60.7495 18.9377 63.5551 19.0127 66.4122C20.9937 66.707 23.0151 66.5634 24.9346 65.9917C26.8539 65.42 28.6245 64.4341 30.1213 63.1035C31.6182 61.7729 32.8047 60.1301 33.5973 58.2909C34.39 56.4517 34.7694 54.461 34.7089 52.4592C34.7025 52.2574 34.7766 52.0614 34.9147 51.9143C35.0529 51.7672 35.2438 51.681 35.4456 51.6746C35.6473 51.6683 35.8434 51.7423 35.9905 51.8805C36.1376 52.0187 36.2239 52.2096 36.2302 52.4114C36.2885 54.4481 35.9369 56.4757 35.1965 58.374C34.4562 60.2723 33.342 62.0026 31.9203 63.4621C30.4985 64.9216 28.798 66.0805 26.9198 66.8703C25.0415 67.6601 23.0237 68.0645 20.9862 68.0596L20.9514 68.0683Z" fill="#AF6900" fill-opacity="1.000000" fill-rule="nonzero"/>
	<path id="Vector" d="M18.1 67.7945C17.9348 67.7621 17.7849 67.6758 17.6741 67.5492C17.5631 67.4225 17.4973 67.2627 17.4871 67.0947C17.3115 64.5326 17.798 61.9684 18.8998 59.6487C15.6093 60.9266 12.4708 61.1048 9.54553 60.1746C7.57324 59.545 5.74451 58.5325 4.16394 57.1952C2.5835 55.8578 1.28223 54.2219 0.334839 52.381C0.267456 52.2507 0.239502 52.1038 0.25415 51.9579C0.268799 51.8121 0.325439 51.6736 0.417358 51.5594C2.50818 48.9514 4.45117 46.8736 7.13745 45.1349C8.9325 43.9382 11.0129 43.2393 13.1664 43.1093C10.6461 41.1058 8.63293 38.5372 7.28955 35.6112C5.46228 31.5837 5.03528 27.0605 6.07678 22.7623C6.11194 22.6207 6.18652 22.4919 6.29199 22.3911C6.39734 22.2903 6.52942 22.2215 6.67236 22.1928C10.467 21.4582 14.9312 22.2146 18.9519 24.2706C22.678 26.1852 25.6581 29.2892 27.4193 33.0901C27.5042 33.2734 27.5126 33.4829 27.4429 33.6724C27.3732 33.8619 27.2311 34.016 27.0477 34.1007C26.8644 34.1855 26.655 34.1939 26.4655 34.1242C26.2759 34.0545 26.1217 33.9124 26.037 33.7291C24.4202 30.2362 21.6835 27.3831 18.2607 25.6224C14.7139 23.8098 10.8062 23.0839 7.44617 23.6055C6.62939 27.4309 7.05884 31.4174 8.67188 34.9809C10.3862 38.7285 13.2892 41.8057 16.9307 43.7353C17.1031 43.8254 17.2347 43.9783 17.298 44.1624C17.3612 44.3466 17.3514 44.548 17.2706 44.7251C17.1898 44.9023 17.0442 45.0417 16.8636 45.1147C16.6832 45.1877 16.4816 45.1887 16.3004 45.1175C13.8575 44.1352 10.7496 44.622 7.98071 46.4215C5.59875 47.9646 3.81653 49.8294 1.93433 52.1288C3.698 55.2734 6.58655 57.6339 10.0194 58.7359C13.1968 59.74 16.7003 59.2575 20.4515 57.2971C20.6028 57.2181 20.7761 57.1923 20.9438 57.2238C21.1115 57.2552 21.2637 57.3421 21.3761 57.4705C21.4884 57.5989 21.5543 57.7613 21.5632 57.9317C21.5721 58.1021 21.5236 58.2705 21.4252 58.4099C19.7834 60.7495 18.9377 63.5551 19.0127 66.4122C20.9937 66.707 23.0151 66.5634 24.9346 65.9917C26.8539 65.42 28.6245 64.4341 30.1213 63.1035C31.6182 61.7729 32.8047 60.1301 33.5973 58.2909C34.39 56.4517 34.7694 54.461 34.7089 52.4592C34.7025 52.2574 34.7766 52.0614 34.9147 51.9143C35.0529 51.7672 35.2438 51.681 35.4456 51.6746C35.6473 51.6683 35.8434 51.7423 35.9905 51.8805C36.1376 52.0187 36.2239 52.2096 36.2302 52.4114C36.2885 54.4481 35.9369 56.4757 35.1965 58.374C34.4562 60.2723 33.342 62.0026 31.9203 63.4621C30.4985 64.9216 28.798 66.0806 26.9198 66.8703C25.0415 67.6601 23.0237 68.0645 20.9862 68.0596L20.9514 68.0683C19.9944 68.0681 19.0396 67.9764 18.1 67.7945Z" stroke="#AF6900" stroke-opacity="1.000000" stroke-width="0.500000"/>
	<path id="Vector" d="M67.7485 64.0955C67.6764 64.0961 67.6046 64.0858 67.5355 64.0651C63.0671 62.7611 57.4207 60.7137 53.3825 56.4409C50.5038 53.4225 48.7207 49.5257 48.3185 45.3741C45.0236 45.7398 41.7067 44.9133 38.9686 43.0443C36.0651 41.1143 33.6353 38.0977 31.9313 34.3508C30.297 30.73 29.5146 26.9178 28.9625 23.6665C28.9303 23.4733 28.9736 23.2752 29.0837 23.1133C29.1938 22.9513 29.3622 22.8381 29.5537 22.7971C32.7964 22.0886 36.6562 22.4842 40.025 23.7838C38.2516 20.4586 37.8864 16.0684 39.1903 12.0085C40.5422 7.8096 43.511 3.9062 48.0186 0.41143C48.1353 0.320335 48.2759 0.265236 48.4233 0.252884C48.5708 0.240532 48.7188 0.2715 48.8489 0.341919C55.056 3.73672 59.6288 10.3394 60.8632 17.4811C66.8748 10.1872 76.4898 5.94917 86.4134 6.32733C86.6098 6.3352 86.7955 6.41883 86.9317 6.56064C87.0678 6.70245 87.1437 6.89143 87.1436 7.08801C87.1436 13.669 86.3656 17.568 84.2444 21.993C83.2403 24.0794 79.9194 29.4433 75.6683 32.2469C78.0116 32.4635 80.2907 33.1322 82.3796 34.216C86.4351 36.2938 89.9777 39.8668 92.9117 44.8481C92.9958 44.9931 93.0303 45.1615 93.0099 45.3279C92.9895 45.4942 92.9153 45.6493 92.7987 45.7696C89.7082 48.8993 85.9005 52.3289 81.0625 54.0284C76.6332 55.5715 72.0474 55.4064 68.4005 53.6416C69.2875 56.8894 69.316 60.3118 68.4831 63.5739C68.4568 63.6709 68.4113 63.7617 68.3494 63.8408C68.2874 63.9199 68.2101 63.9858 68.1223 64.0346C68.0048 64.0859 67.8762 64.1069 67.7485 64.0955ZM49.014 43.6311C49.2158 43.6311 49.4093 43.7112 49.5519 43.8539C49.6946 43.9965 49.7747 44.19 49.7747 44.3917C49.7769 44.412 49.7769 44.4324 49.7747 44.4526C49.9795 48.5477 51.6504 52.4325 54.4822 55.3977C58.0466 59.1706 63.0453 61.118 67.1921 62.3786C67.882 58.98 67.5909 55.4553 66.3531 52.2159C66.2946 52.0637 66.2864 51.8966 66.33 51.7394C66.3735 51.5823 66.4665 51.4433 66.5951 51.3429C66.7237 51.2426 66.8811 51.1862 67.0442 51.1822C67.2072 51.1781 67.3673 51.2266 67.5007 51.3204C70.9042 53.7024 75.9073 54.1763 80.541 52.5549C84.8877 51.0466 88.2651 48.1125 91.2773 45.0959C88.6954 40.897 82.2057 32.5208 72.1169 33.7944C71.9235 33.8191 71.728 33.7686 71.5707 33.6533C71.4135 33.538 71.3065 33.3667 71.2719 33.1748C71.2372 32.9828 71.2776 32.785 71.3848 32.622C71.4919 32.4591 71.6575 32.3434 71.8475 32.2991C77.1983 31.0385 81.8884 23.3057 82.8491 21.3062C84.8094 17.229 85.5266 13.7516 85.5961 7.80088L85.1615 7.80088C75.5204 7.80088 66.3271 12.3345 60.9501 19.8109C60.8586 19.9356 60.7319 20.0299 60.5862 20.0818C60.4406 20.1338 60.2827 20.1408 60.133 20.1022C59.9836 20.0612 59.8502 19.9755 59.7508 19.8567C59.6514 19.7378 59.5906 19.5914 59.5766 19.4371C58.9246 12.252 54.6126 5.42323 48.5359 1.89803C44.4977 5.11897 41.8375 8.66591 40.6248 12.4476C39.3687 16.3596 39.5946 21.8148 42.9373 25.2313C43.0645 25.3639 43.1395 25.538 43.1483 25.7215C43.1571 25.905 43.0991 26.0855 42.9851 26.2297C42.8712 26.3738 42.709 26.4718 42.5284 26.5057C42.3478 26.5395 42.1611 26.5068 42.0028 26.4136C38.5599 24.3858 34.5337 23.5787 30.5752 24.1229C31.1012 27.1091 31.8575 30.4996 33.3007 33.6857C34.8872 37.1979 37.13 39.9885 39.7946 41.7576C42.3341 43.5033 45.4381 44.2281 48.488 43.7876C48.6384 43.6729 48.8254 43.6172 49.014 43.6311Z" fill="#AF6900" fill-opacity="1.000000" fill-rule="nonzero"/>
	<path id="Vector" d="M67.5355 64.0651C63.0671 62.7611 57.4207 60.7137 53.3825 56.4409C50.5038 53.4225 48.7207 49.5257 48.3185 45.3741C45.0236 45.7398 41.7067 44.9133 38.9686 43.0443C36.0651 41.1143 33.6353 38.0977 31.9313 34.3508C30.297 30.73 29.5146 26.9178 28.9625 23.6665C28.9303 23.4733 28.9736 23.2752 29.0837 23.1133C29.1938 22.9513 29.3622 22.8381 29.5537 22.7971C32.7964 22.0886 36.6562 22.4842 40.025 23.7838C38.2516 20.4586 37.8864 16.0684 39.1903 12.0085C40.5422 7.8096 43.511 3.9062 48.0186 0.41143C48.1353 0.320335 48.2759 0.265236 48.4233 0.252884C48.5708 0.240532 48.7188 0.2715 48.8489 0.341919C55.056 3.73672 59.6288 10.3394 60.8632 17.4811C66.8748 10.1872 76.4898 5.94917 86.4134 6.32733C86.6098 6.3352 86.7955 6.41883 86.9317 6.56064C87.0678 6.70245 87.1438 6.89143 87.1436 7.08801C87.1436 13.669 86.3656 17.568 84.2444 21.993C83.2403 24.0794 79.9194 29.4433 75.6683 32.2469C78.0116 32.4635 80.2907 33.1322 82.3796 34.216C86.4351 36.2938 89.9777 39.8668 92.9117 44.8481C92.9958 44.9931 93.0303 45.1615 93.0099 45.3279C92.9895 45.4942 92.9153 45.6493 92.7987 45.7696C89.7082 48.8993 85.9005 52.3289 81.0625 54.0284C76.6332 55.5715 72.0474 55.4064 68.4005 53.6416C69.2875 56.8894 69.316 60.3118 68.4831 63.5739C68.4568 63.6709 68.4113 63.7617 68.3494 63.8408C68.2874 63.9199 68.2101 63.9858 68.1223 64.0346C68.0048 64.0859 67.8762 64.1069 67.7485 64.0955C67.6764 64.0961 67.6046 64.0858 67.5355 64.0651ZM49.5519 43.8539C49.6946 43.9965 49.7747 44.19 49.7747 44.3917C49.7769 44.412 49.7769 44.4324 49.7747 44.4526C49.9795 48.5477 51.6504 52.4325 54.4822 55.3977C58.0466 59.1706 63.0453 61.118 67.1921 62.3786C67.882 58.98 67.5909 55.4553 66.3531 52.2159C66.2946 52.0637 66.2864 51.8966 66.33 51.7394C66.3735 51.5823 66.4665 51.4433 66.5951 51.3429C66.7237 51.2426 66.8811 51.1862 67.0442 51.1822C67.2072 51.1781 67.3673 51.2266 67.5007 51.3204C70.9042 53.7024 75.9073 54.1763 80.541 52.5549C84.8877 51.0466 88.2651 48.1125 91.2773 45.0959C88.6954 40.897 82.2057 32.5208 72.1169 33.7944C71.9235 33.8191 71.728 33.7686 71.5707 33.6533C71.4135 33.538 71.3065 33.3667 71.2719 33.1748C71.2372 32.9828 71.2776 32.785 71.3848 32.622C71.4919 32.4591 71.6575 32.3434 71.8475 32.2991C77.1983 31.0385 81.8884 23.3057 82.8491 21.3062C84.8094 17.229 85.5266 13.7516 85.5961 7.80088L85.1615 7.80088C75.5204 7.80088 66.3271 12.3345 60.9501 19.8109C60.8586 19.9356 60.7319 20.0299 60.5862 20.0818C60.4406 20.1338 60.2827 20.1408 60.133 20.1022C59.9836 20.0612 59.8502 19.9755 59.7508 19.8567C59.6514 19.7378 59.5906 19.5914 59.5766 19.4371C58.9246 12.252 54.6126 5.42323 48.5359 1.89803C44.4977 5.11897 41.8375 8.66591 40.6248 12.4476C39.3687 16.3596 39.5946 21.8148 42.9373 25.2313C43.0645 25.3639 43.1395 25.538 43.1483 25.7215C43.1571 25.905 43.0991 26.0855 42.9851 26.2297C42.8712 26.3738 42.709 26.4718 42.5284 26.5057C42.3478 26.5395 42.1611 26.5068 42.0028 26.4136C38.5599 24.3858 34.5337 23.5787 30.5752 24.1229C31.1012 27.1091 31.8575 30.4996 33.3007 33.6857C34.8872 37.1979 37.1301 39.9885 39.7946 41.7576C42.3341 43.5033 45.4381 44.2281 48.488 43.7876C48.6384 43.6729 48.8254 43.6172 49.014 43.6311C49.2158 43.6311 49.4093 43.7112 49.5519 43.8539Z" stroke="#AF6900" stroke-opacity="1.000000" stroke-width="0.500000"/>
</svg>
