<svg width="18.127014" height="18.061890" viewBox="0 0 18.127 18.0619" fill="none" xmlns="http://www.w3.org/2000/svg" xmlns:xlink="http://www.w3.org/1999/xlink">
	<desc>
			Created with Pixso.
	</desc>
	<defs/>
	<path id="Vector" d="M3.93512 18.0619L0.0646362 18.0619L0.0646362 5.16016L3.93512 5.16016L3.93512 18.0619ZM18.127 18.0619L14.2565 18.0619L14.2565 11.1698C14.2565 9.3739 13.6166 8.47974 12.3483 8.47974C11.3433 8.47974 10.7059 8.98035 10.386 9.98279L10.386 18.0619L6.5155 18.0619C6.5155 18.0619 6.56708 6.45032 6.5155 5.16016L9.57062 5.16016L9.8067 7.74048L9.88672 7.74048C10.6801 6.45032 11.9484 5.57556 13.6875 5.57556C15.0099 5.57556 16.0795 5.94324 16.8962 6.86707C17.718 7.79211 18.127 9.0332 18.127 10.7762L18.127 18.0619Z" fill="#AF6900" fill-opacity="1.000000" fill-rule="nonzero"/>
	<path id="Vector" d="M3.99951 1.9353C3.99951 3.00403 3.10419 3.87048 1.99976 3.87048C0.895325 3.87048 0 3.00403 0 1.9353C0 0.866455 0.895325 0 1.99976 0C3.10419 0 3.99951 0.866455 3.99951 1.9353Z" fill="#AF6900" fill-opacity="1.000000" fill-rule="evenodd"/>
</svg>
