<svg width="134.484009" height="138.203125" viewBox="0 0 134.484 138.203" fill="none" xmlns="http://www.w3.org/2000/svg" xmlns:xlink="http://www.w3.org/1999/xlink">
	<desc>
			Created with Pixso.
	</desc>
	<defs/>
	<path id="XMLID_70_" d="M27.2853 59.6096C29.1093 64.5256 33.6395 70.6648 44.6797 74.2905C46.2145 74.7947 47.5491 75.5063 48.7131 76.3813C43.5156 74.3943 35.9528 72.9854 27.5745 76.1885C27.3668 76.27 27.2482 76.4924 27.2927 76.7075C27.4633 77.4861 27.656 78.2571 27.8636 79.0208C27.9377 79.2729 28.2195 79.4065 28.4642 79.3101C40.572 74.5352 50.8634 80.6667 53.3397 82.3499C56.58 89.3269 56.5651 99.344 56.5503 108.568L56.5428 109.976C56.5428 110.214 56.7356 110.414 56.9729 110.414L59.3381 110.414C59.5753 110.414 59.7682 110.221 59.7682 109.984L59.7755 108.583C59.7979 93.2493 59.8275 75.8772 45.6807 71.2283C45.6583 71.2207 45.6436 71.2207 45.6287 71.2134C44.3608 65.052 45.2432 59.8916 46.118 54.894C47.2673 48.2729 48.3573 41.9929 43.8344 35.0454C43.6935 34.8306 43.397 34.7786 43.1893 34.927C42.5518 35.394 41.9288 35.876 41.3209 36.3728C41.1429 36.5137 41.1133 36.7732 41.2319 36.9585C44.9465 42.7715 44.0494 47.9468 42.9373 54.3455C42.1439 58.8906 41.269 63.9619 42.1143 69.8564C31.9712 65.3708 29.7839 58.5569 29.3761 54.9238C29.3242 54.4565 28.6643 54.3826 28.5161 54.8274C28.0118 56.303 27.5967 57.8154 27.2631 59.3577C27.2556 59.4392 27.2556 59.5281 27.2853 59.6096Z" fill="#FFFFFF" fill-opacity="1.000000" fill-rule="nonzero"/>
	<path id="XMLID_69_" d="M105.923 79.3989C106.168 79.4878 106.442 79.3618 106.516 79.1096C106.732 78.3459 106.924 77.575 107.095 76.8037C107.139 76.5889 107.021 76.3589 106.806 76.2849C95.4541 72.1104 85.4742 75.4321 80.2693 77.9753C81.6409 74.4238 83.8059 71.3616 87.2166 69.582C90.9313 67.647 94.5867 66.8164 97.8044 66.0825C101.564 65.2297 105.189 64.4067 107.436 61.834C107.525 61.7302 107.562 61.5967 107.54 61.4631C107.354 60.314 107.125 59.1797 106.843 58.0601C106.732 57.6299 106.138 57.6152 105.983 58.0303C104.908 61.0183 102.172 61.7747 97.0779 62.946C93.6672 63.7246 89.7969 64.6069 85.7189 66.7349C84.0358 67.6099 82.6122 68.7219 81.4037 69.99C79.3053 67.3726 77.4294 63.4949 77.5259 59.2019C77.6149 55.4426 79.2312 52.1062 82.3304 49.2961C88.314 43.8613 89.7301 38.5896 89.7375 34.1482C89.7375 34 89.6635 33.8591 89.5299 33.7703C88.744 33.2512 87.9432 32.7617 87.1202 32.302C86.8163 32.1316 86.4381 32.3689 86.4603 32.7246C86.7792 37.0176 85.8894 41.6963 80.1506 46.9087C76.4286 50.2896 74.4044 54.5159 74.2932 59.1277C74.1597 64.5996 76.6807 69.4783 79.3573 72.585C74.6119 79.8809 74.6268 90.4316 74.6343 96.8303L74.6343 109.999C74.6343 110.236 74.827 110.428 75.0642 110.428L77.4294 110.428C77.6667 110.428 77.8595 110.236 77.8595 109.999L77.8595 96.823C77.8522 92.9897 77.8447 87.5325 78.9495 82.387C81.7076 80.6816 93.0073 74.5571 105.923 79.3989Z" fill="#FFFFFF" fill-opacity="1.000000" fill-rule="nonzero"/>
	<path id="XMLID_68_" d="M67.0936 59.9285C70.0076 55.072 73.6332 49.0293 74.2412 41.2812C74.8566 33.4219 76.7621 30.3447 77.9039 29.1882C78.1412 28.9509 78.03 28.543 77.7037 28.4541C76.8436 28.2241 75.9762 28.0242 75.0939 27.8535C74.9233 27.824 74.7528 27.8906 74.649 28.0315C73.1216 30.1816 71.572 34.052 71.0233 41.0291C70.4746 48.0283 67.2048 53.4631 64.328 58.2678C62.8081 60.8035 61.4142 63.1243 60.5688 65.408C56.9951 59.8469 54.6521 55.428 58.3445 45.6482C61.9999 35.9724 62.8896 30.5449 63.0305 27.8164C63.0453 27.542 62.8081 27.3271 62.5337 27.3567C61.7256 27.4531 60.9248 27.5645 60.1315 27.7053C59.9313 27.7422 59.783 27.9055 59.7681 28.1057C59.568 30.5525 58.7004 35.5942 55.3269 44.5063C50.8485 56.3547 54.5483 62.064 58.4706 68.1067C61.8146 73.2598 65.6033 79.1025 65.6033 90.2834L65.6033 109.984C65.6033 110.221 65.7961 110.414 66.0333 110.414L68.3986 110.414C68.6359 110.414 68.8286 110.221 68.8286 109.984L68.8286 90.2834C68.8286 80.2368 65.9221 74.0234 62.986 69.2041C63.1639 66.4829 64.9954 63.4355 67.0936 59.9285Z" fill="#FFFFFF" fill-opacity="1.000000" fill-rule="nonzero"/>
	<path id="XMLID_67_" d="M87.6689 56.5994L86.9794 56.7476C83.4797 57.5115 81.2554 60.9666 82.019 64.4736L82.1674 65.1631C82.2192 65.3855 82.4343 65.5264 82.6642 65.4819L83.3536 65.3337C86.8533 64.5698 89.0776 61.1147 88.314 57.6077L88.1656 56.9182C88.1138 56.6882 87.8914 56.5474 87.6689 56.5994Z" fill="#FFFFFF" fill-opacity="1.000000" fill-rule="nonzero"/>
	<path id="XMLID_66_" d="M90.3159 86.9543L90.9238 86.5984C91.124 86.4873 91.1908 86.2278 91.0796 86.0276L90.7236 85.4194C88.9294 82.3127 84.9626 81.2527 81.856 83.0469L81.2479 83.4028C81.0477 83.5139 80.9811 83.7734 81.0923 83.9736L81.4481 84.5818C83.2424 87.6809 87.2092 88.7485 90.3159 86.9543Z" fill="#FFFFFF" fill-opacity="1.000000" fill-rule="nonzero"/>
	<path id="XMLID_65_" d="M73.1143 79.688L73.7816 79.9253C73.9966 80.0068 74.2339 79.8882 74.3154 79.6731L74.5527 79.0132C75.7761 75.647 74.0262 71.925 70.66 70.7017L69.9928 70.4644C69.7777 70.3828 69.5405 70.5015 69.459 70.7166L69.2217 71.3762C68.0057 74.7424 69.748 78.4646 73.1143 79.688Z" fill="#FFFFFF" fill-opacity="1.000000" fill-rule="nonzero"/>
	<path id="XMLID_64_" d="M72.217 62.1604C68.6655 61.656 65.381 64.1252 64.8767 67.6692L64.7804 68.3662C64.7507 68.5962 64.9064 68.8037 65.1362 68.8333L65.8258 68.9446C69.3773 69.4487 72.662 66.9871 73.1661 63.4355L73.2626 62.7385C73.2922 62.5088 73.1365 62.3013 72.9066 62.2715L72.217 62.1604Z" fill="#FFFFFF" fill-opacity="1.000000" fill-rule="nonzero"/>
	<path id="XMLID_63_" d="M66.7083 44.0095C63.1641 43.4832 59.8646 45.9373 59.3381 49.4814L59.2344 50.1785C59.1973 50.4082 59.3605 50.616 59.5829 50.6528L60.2798 50.7568C63.824 51.2832 67.1234 48.8291 67.6498 45.2849L67.7537 44.5879C67.7906 44.3582 67.6276 44.1504 67.4052 44.1133L66.7083 44.0095Z" fill="#FFFFFF" fill-opacity="1.000000" fill-rule="nonzero"/>
	<path id="XMLID_62_" d="M51.6345 60.3438L50.9746 60.5884C47.6158 61.8342 45.8956 65.5637 47.1339 68.9224L47.3785 69.5823C47.4601 69.7974 47.6974 69.9084 47.9125 69.8269L48.5723 69.5823C51.931 68.344 53.6512 64.6072 52.413 61.2483L52.1683 60.5884C52.0942 60.3809 51.8569 60.2698 51.6345 60.3438Z" fill="#FFFFFF" fill-opacity="1.000000" fill-rule="nonzero"/>
	<path id="XMLID_61_" d="M40.8834 53.7668L41.5803 53.8633C41.8102 53.8931 42.0178 53.7373 42.0475 53.5073L42.1438 52.8105C42.6481 49.259 40.1864 45.9744 36.6349 45.4702L35.9379 45.3738C35.708 45.344 35.5005 45.4998 35.4708 45.7297L35.3744 46.4265C34.8702 49.978 37.3392 53.2627 40.8834 53.7668Z" fill="#FFFFFF" fill-opacity="1.000000" fill-rule="nonzero"/>
	<path id="XMLID_60_" d="M36.3977 54.6196L35.901 55.1165C33.3652 57.6521 33.3652 61.7598 35.901 64.2957L36.3977 64.7922C36.5609 64.9556 36.8203 64.9556 36.9835 64.7922L37.4802 64.2957C40.016 61.7598 40.016 57.6521 37.4802 55.1165L36.9835 54.6196C36.8203 54.4565 36.5609 54.4565 36.3977 54.6196Z" fill="#FFFFFF" fill-opacity="1.000000" fill-rule="nonzero"/>
	<path id="XMLID_59_" d="M52.8652 42.8679L53.5326 43.105C53.7476 43.1792 53.9849 43.0681 54.0664 42.853L54.3037 42.1858C55.5122 38.812 53.755 35.0974 50.374 33.8889L49.7067 33.6516C49.4917 33.5774 49.2544 33.6887 49.1729 33.9038L48.9355 34.571C47.7345 37.9519 49.4917 41.6592 52.8652 42.8679Z" fill="#FFFFFF" fill-opacity="1.000000" fill-rule="nonzero"/>
	<path id="XMLID_58_" d="M69.2068 36.6841L69.8889 36.8545C70.1113 36.9138 70.3412 36.7729 70.3931 36.5505L70.5636 35.8684C71.4386 32.3911 69.3329 28.8691 65.8628 27.9868L65.1807 27.8164C64.9583 27.7571 64.7284 27.8979 64.6765 28.1204L64.506 28.8025C63.6237 32.2798 65.7294 35.8091 69.2068 36.6841Z" fill="#FFFFFF" fill-opacity="1.000000" fill-rule="nonzero"/>
	<path id="XMLID_57_" d="M96.2325 69.8787L95.8174 70.4495C95.684 70.635 95.7284 70.8943 95.9138 71.0278L96.4847 71.4431C99.3911 73.5339 103.447 72.874 105.545 69.9675L105.96 69.3967C106.094 69.2114 106.049 68.9519 105.864 68.8184L105.293 68.4031C102.387 66.3049 98.3309 66.9722 96.2325 69.8787Z" fill="#FFFFFF" fill-opacity="1.000000" fill-rule="nonzero"/>
	<path id="XMLID_56_" d="M51.4788 83.4026L50.8708 83.0466C47.7642 81.2524 43.7974 82.3201 42.0031 85.4194L41.6472 86.0273C41.536 86.2275 41.6027 86.4797 41.8029 86.5984L42.4109 86.9541C45.5176 88.7485 49.4844 87.6809 51.2787 84.5815L51.6345 83.9736C51.7457 83.7734 51.679 83.5139 51.4788 83.4026Z" fill="#FFFFFF" fill-opacity="1.000000" fill-rule="nonzero"/>
	<path id="XMLID_55_" d="M95.6394 79.4211L94.9425 79.5471C94.72 79.5842 94.5643 79.8066 94.6088 80.0291L94.7349 80.7261C95.3724 84.2554 98.7461 86.5981 102.268 85.9607L102.965 85.8345C103.187 85.7976 103.343 85.575 103.299 85.3525L103.172 84.6558C102.535 81.1338 99.1613 78.7834 95.6394 79.4211Z" fill="#FFFFFF" fill-opacity="1.000000" fill-rule="nonzero"/>
	<path id="XMLID_54_" d="M39.8677 79.5471L39.1707 79.4211C35.6414 78.7834 32.2678 81.1338 31.6376 84.6558L31.5116 85.3525C31.4745 85.575 31.6228 85.7976 31.8452 85.8345L32.5421 85.9607C36.0714 86.5981 39.4451 84.2478 40.0753 80.7261L40.2013 80.0291C40.2458 79.8066 40.0975 79.5842 39.8677 79.5471Z" fill="#FFFFFF" fill-opacity="1.000000" fill-rule="nonzero"/>
	<path id="XMLID_53_" d="M92.5403 52.4177C92.7108 52.262 92.7181 51.9951 92.5625 51.832L92.0806 51.313C89.6412 48.6882 85.5336 48.5325 82.9088 50.9719L82.3898 51.4539C82.2192 51.6094 82.2119 51.8765 82.3676 52.0396L82.8495 52.5586C85.2889 55.1833 89.3965 55.3389 92.0212 52.8997L92.5403 52.4177Z" fill="#FFFFFF" fill-opacity="1.000000" fill-rule="nonzero"/>
	<path id="XMLID_52_" d="M97.33 42.4304L97.5673 41.7629C97.6414 41.5481 97.5302 41.3108 97.3152 41.2292L96.6478 40.9919C93.2743 39.7834 89.5596 41.5405 88.3511 44.9216L88.1138 45.5889C88.0397 45.804 88.1509 46.0413 88.3658 46.1228L89.0332 46.3601C92.4142 47.5613 96.1288 45.804 97.33 42.4304Z" fill="#FFFFFF" fill-opacity="1.000000" fill-rule="nonzero"/>
	<path id="XMLID_51_" d="M76.7177 40.688C76.7177 40.9177 76.903 41.103 77.1328 41.103L77.8373 41.103C81.4185 41.103 84.325 38.1965 84.325 34.6155L84.325 33.9111C84.325 33.6812 84.1395 33.4958 83.9097 33.4958L83.2053 33.4958C79.6241 33.4958 76.7177 36.4023 76.7177 39.9836L76.7177 40.688Z" fill="#FFFFFF" fill-opacity="1.000000" fill-rule="nonzero"/>
	<path id="XMLID_50_" d="M95.647 60.1807C95.6766 60.4106 95.8916 60.5662 96.1215 60.5366L96.8184 60.4329C100.363 59.9211 102.824 56.6292 102.312 53.085L102.209 52.3882C102.179 52.1582 101.964 52.0024 101.734 52.0322L101.037 52.136C97.4932 52.6477 95.0315 55.9397 95.5356 59.4836L95.647 60.1807Z" fill="#FFFFFF" fill-opacity="1.000000" fill-rule="nonzero"/>
	<path id="XMLID_49_" d="M28.0045 20.4539L25.8766 12.2163L24.7347 13.106L26.3807 19.4602L20.6271 16.3164L19.3889 17.2878L26.8776 21.3286L28.0045 20.4539Z" fill="#FFFFFF" fill-opacity="1.000000" fill-rule="nonzero"/>
	<path id="XMLID_48_" d="M29.7201 9.87695L30.9674 9.14575L34.9119 15.875L33.6646 16.606L29.7201 9.87695Z" fill="#FFFFFF" fill-opacity="1.000000" fill-rule="evenodd"/>
	<path id="XMLID_47_" d="M40.4089 13.0615L38.4219 8.16797L44.3905 11.4377L45.4952 10.9927L42.5591 3.76367L41.2319 4.30493L43.219 9.19849L37.2429 5.92871L36.1382 6.37354L39.0743 13.6028L40.4089 13.0615Z" fill="#FFFFFF" fill-opacity="1.000000" fill-rule="nonzero"/>
	<path id="XMLID_44_" d="M57.0544 8.32349L56.8024 6.06201L58.5521 5.86182C58.6855 5.84717 58.782 5.83228 58.8488 5.81738L60.6875 7.9082L62.2372 7.73047L60.1685 5.38745C60.6801 5.12036 61.0508 4.76465 61.2881 4.30493C61.5254 3.84521 61.6069 3.3335 61.5476 2.7478C61.4808 2.177 61.2955 1.70239 60.9841 1.32422C60.6727 0.938721 60.2574 0.664307 59.7311 0.501221C59.2046 0.338135 58.6115 0.293701 57.9368 0.367676L54.7411 0.730957L55.616 8.47925L57.0544 8.32349ZM58.0034 1.59863C58.6337 1.52441 59.123 1.60596 59.479 1.83594C59.8348 2.06567 60.0425 2.42896 60.0944 2.91846C60.1462 3.40771 60.0276 3.81543 59.7384 4.11938C59.4419 4.42358 58.9822 4.61621 58.3594 4.68311L56.6763 4.87573L56.3278 1.78394L58.0034 1.59863Z" fill="#FFFFFF" fill-opacity="1.000000" fill-rule="nonzero"/>
	<path id="XMLID_41_" d="M67.7981 7.34497C68.4135 7.73047 69.1178 7.95288 69.9111 8.00488C70.7045 8.05664 71.4312 7.93823 72.0911 7.63403C72.751 7.33008 73.2848 6.89258 73.6852 6.30688C74.0856 5.72119 74.3154 5.05396 74.3673 4.29028C74.4192 3.52661 74.2858 2.82959 73.9595 2.19922C73.6406 1.56909 73.1661 1.05737 72.5581 0.671875C71.9427 0.286377 71.2384 0.0639648 70.4451 0.0119629C69.6516 -0.0397949 68.925 0.0788574 68.2651 0.382812C67.6052 0.686768 67.0714 1.13159 66.671 1.71729C66.2632 2.30322 66.0408 2.97778 65.9889 3.73413C65.937 4.49048 66.0704 5.18726 66.3967 5.82495C66.7156 6.44043 67.1826 6.9519 67.7981 7.34497ZM67.4496 3.81567C67.4867 3.29663 67.6349 2.83691 67.9019 2.43652C68.1688 2.03613 68.5172 1.73218 68.9473 1.52466C69.3773 1.31689 69.8518 1.23535 70.3708 1.27246C70.8899 1.30957 71.3496 1.45776 71.75 1.71729C72.1504 1.97681 72.4543 2.32544 72.662 2.7627C72.8695 3.2002 72.9585 3.6748 72.9215 4.19385C72.8844 4.71289 72.7361 5.17261 72.4691 5.573C72.2023 5.97339 71.8538 6.27734 71.4237 6.48486C70.9863 6.68506 70.5117 6.77417 69.9927 6.73706C69.4738 6.69995 69.014 6.55151 68.6136 6.29199C68.2133 6.03271 67.9093 5.68408 67.7017 5.24658C67.494 4.81665 67.4125 4.33472 67.4496 3.81567Z" fill="#FFFFFF" fill-opacity="1.000000" fill-rule="nonzero"/>
	<path id="XMLID_40_" d="M81.3665 9.86597C82.412 10.1404 83.2943 10.0586 84.0283 9.62134C84.7623 9.18384 85.2665 8.42017 85.5557 7.33008L86.6678 3.07422L85.2888 2.71094L84.1914 6.91504C83.8059 8.39795 82.9755 8.96875 81.7002 8.63501C80.4175 8.30151 79.9725 7.39697 80.3582 5.91406L81.4554 1.70996L80.0542 1.34668L78.942 5.60254C78.6603 6.69263 78.7269 7.61182 79.157 8.34595C79.587 9.09473 80.321 9.59912 81.3665 9.86597Z" fill="#FFFFFF" fill-opacity="1.000000" fill-rule="nonzero"/>
	<path id="XMLID_39_" d="M90.5236 12.4609C90.9536 13.0466 91.5319 13.5063 92.2511 13.8398C92.7627 14.0771 93.2965 14.2329 93.8527 14.3071C94.4087 14.3811 94.9352 14.3516 95.4319 14.2329L96.7517 11.4153L95.5134 10.8372L94.4829 13.0391C93.949 13.0837 93.4077 12.9797 92.8591 12.7202C92.3698 12.4905 91.9768 12.179 91.6951 11.7786C91.4059 11.3857 91.2427 10.9482 91.1982 10.4663C91.1538 9.98438 91.2427 9.50977 91.4652 9.04272C91.6951 8.56079 91.999 8.17529 92.3994 7.90088C92.7924 7.62646 93.2299 7.47827 93.7191 7.44873C94.2085 7.41895 94.6979 7.52271 95.1947 7.76001C95.9584 8.11597 96.4773 8.68677 96.7665 9.48022L97.9751 9.05762C97.8193 8.52368 97.545 8.04932 97.1521 7.62646C96.7592 7.20386 96.2698 6.85547 95.6766 6.58105C94.95 6.23999 94.2234 6.0918 93.4967 6.12891C92.7701 6.16602 92.1102 6.38843 91.5245 6.78882C90.9387 7.18921 90.479 7.73047 90.1602 8.42725C89.834 9.11694 89.7079 9.82129 89.7821 10.5256C89.8562 11.23 90.0935 11.875 90.5236 12.4609Z" fill="#FFFFFF" fill-opacity="1.000000" fill-rule="nonzero"/>
	<path id="XMLID_38_" d="M104.403 19.675L100.792 17.1543L102.023 15.3896L105.115 17.5471L105.797 16.5684L102.705 14.4109L103.862 12.75L107.347 15.1746L108.044 14.1809L103.373 10.926L98.9166 17.3247L103.714 20.6687L104.403 19.675Z" fill="#FFFFFF" fill-opacity="1.000000" fill-rule="nonzero"/>
	<path id="XMLID_37_" d="M10.9734 93.5977L4.19666 93.835L9.47571 89.5864L8.96411 88.2371L2.21692 88.4446L7.47375 84.2407L6.90283 82.7207L0 88.2815L0.585693 89.8459L7.15503 89.6458L2.05383 93.7756L2.63953 95.3328L11.4924 94.9917L10.9734 93.5977Z" fill="#FFFFFF" fill-opacity="1.000000" fill-rule="nonzero"/>
	<path id="XMLID_36_" d="M5.9375 101.695L11.4878 98.4663L12.2445 99.7673L6.69434 102.996L5.9375 101.695Z" fill="#FFFFFF" fill-opacity="1.000000" fill-rule="evenodd"/>
	<path id="XMLID_35_" d="M13.7687 97.2234C13.524 97.1492 13.2942 97.179 13.0718 97.3049C12.8492 97.4309 12.7084 97.6238 12.6565 97.8684C12.5972 98.113 12.6417 98.3579 12.7751 98.5876C12.916 98.8323 13.1088 98.9807 13.3535 99.0474C13.5981 99.114 13.8354 99.0771 14.0653 98.9436C14.2803 98.8176 14.4137 98.6321 14.4583 98.395C14.5101 98.1501 14.4657 97.9128 14.3248 97.6758C14.1987 97.4534 14.0133 97.2976 13.7687 97.2234Z" fill="#FFFFFF" fill-opacity="1.000000" fill-rule="nonzero"/>
	<path id="XMLID_34_" d="M15.6742 105.186C15.3257 104.979 14.955 104.867 14.5693 104.853L15.2292 104.349L14.3618 103.214L9.26062 107.107L10.1726 108.301L12.7528 106.328C13.2496 105.95 13.7241 105.787 14.1838 105.839C14.6436 105.891 15.0365 106.135 15.3776 106.58C15.6742 106.966 15.7927 107.351 15.7261 107.737C15.6593 108.123 15.4072 108.479 14.9624 108.82L12.1893 110.933L13.1013 112.126L16.0226 109.895C16.764 109.331 17.1719 108.708 17.246 108.033C17.3276 107.359 17.12 106.699 16.6306 106.054C16.3414 105.683 16.0226 105.394 15.6742 105.186Z" fill="#FFFFFF" fill-opacity="1.000000" fill-rule="nonzero"/>
	<path id="XMLID_31_" d="M23.022 113.12C22.5623 112.683 22.0581 112.393 21.4945 112.245C20.9385 112.097 20.3823 112.112 19.8263 112.275C19.2703 112.438 18.7809 112.749 18.3508 113.202C17.9133 113.661 17.6316 114.173 17.4982 114.736C17.3646 115.3 17.3943 115.871 17.5945 116.442C17.7874 117.013 18.1432 117.546 18.6548 118.028C19.0552 118.406 19.4778 118.688 19.9153 118.866C20.3527 119.044 20.7976 119.104 21.2424 119.052L21.2943 117.828C20.6418 117.851 20.0636 117.621 19.552 117.131C19.1516 116.753 18.9143 116.331 18.8328 115.871C18.7512 115.411 18.8475 114.981 19.1071 114.581L22.755 118.051C22.8959 117.925 23.0071 117.821 23.0813 117.747C23.5336 117.272 23.8301 116.753 23.9784 116.204C24.1267 115.656 24.1118 115.107 23.9487 114.566C23.7856 114.025 23.4742 113.55 23.022 113.12ZM22.4288 116.375L19.7892 113.862C20.1674 113.572 20.5752 113.431 21.0126 113.454C21.4501 113.476 21.843 113.654 22.1915 113.988C22.5474 114.321 22.7402 114.707 22.7847 115.144C22.8218 115.582 22.7031 115.99 22.4288 116.375Z" fill="#FFFFFF" fill-opacity="1.000000" fill-rule="nonzero"/>
	<path id="XMLID_30_" d="M29.9916 118.859C29.2872 118.355 28.6199 118.103 27.9971 118.11C27.3743 118.11 26.8849 118.362 26.5291 118.859C26.2621 119.237 26.1509 119.6 26.1954 119.956C26.2399 120.312 26.3733 120.624 26.5809 120.905C26.7886 121.187 27.0851 121.506 27.4707 121.884C27.834 122.24 28.0861 122.522 28.2195 122.729C28.353 122.937 28.353 123.13 28.2269 123.308C27.9526 123.693 27.4485 123.626 26.7218 123.1C26.403 122.87 26.1138 122.596 25.8469 122.262C25.5874 121.936 25.3947 121.61 25.2686 121.283L24.1342 121.876C24.2528 122.218 24.4752 122.588 24.8015 122.989C25.1277 123.389 25.4984 123.738 25.9285 124.042C26.655 124.561 27.3372 124.828 27.9749 124.835C28.6051 124.842 29.1018 124.605 29.4503 124.116C29.7173 123.745 29.821 123.389 29.7766 123.048C29.7247 122.707 29.5986 122.403 29.391 122.129C29.1835 121.854 28.8943 121.535 28.5236 121.172C28.1603 120.802 27.9008 120.505 27.7599 120.282C27.619 120.06 27.619 119.853 27.7599 119.652C27.8859 119.474 28.0786 119.4 28.3456 119.422C28.6051 119.445 28.9165 119.585 29.2798 119.845C29.8359 120.238 30.2437 120.727 30.4957 121.306L31.6302 120.712C31.4967 120.408 31.2817 120.097 30.9851 119.756C30.6812 119.407 30.3549 119.111 29.9916 118.859Z" fill="#FFFFFF" fill-opacity="1.000000" fill-rule="nonzero"/>
	<path id="XMLID_29_" d="M38.2513 123.812C37.851 123.612 37.458 123.486 37.0725 123.441C36.6869 123.404 36.3162 123.441 35.9751 123.567L37.4506 120.676L36.1086 119.993L32.0529 127.934L33.3875 128.616L34.8629 125.725C35.1447 125.169 35.5081 124.813 35.9454 124.665C36.3829 124.516 36.85 124.568 37.3394 124.813C37.7769 125.035 38.0438 125.332 38.155 125.71C38.2588 126.081 38.1847 126.518 37.9325 127.022L36.3458 130.129L37.6879 130.811L39.3561 127.534C39.7788 126.704 39.8826 125.969 39.6602 125.324C39.4377 124.679 38.9706 124.183 38.2513 123.812Z" fill="#FFFFFF" fill-opacity="1.000000" fill-rule="nonzero"/>
	<path id="XMLID_26_" d="M48.7131 128.379C48.3053 127.957 47.7864 127.638 47.1561 127.438C46.5406 127.237 45.9401 127.193 45.3544 127.304C44.776 127.415 44.2644 127.66 43.8344 128.045C43.4044 128.431 43.093 128.92 42.9001 129.528C42.7074 130.136 42.6703 130.715 42.7964 131.286C42.9225 131.856 43.1893 132.346 43.6046 132.776C44.0198 133.206 44.5314 133.51 45.1467 133.71C45.7695 133.91 46.3776 133.955 46.9559 133.851C47.5343 133.74 48.0458 133.495 48.4758 133.11C48.9059 132.724 49.2173 132.227 49.4102 131.627C49.6029 131.026 49.6326 130.44 49.5065 129.877C49.3953 129.298 49.1283 128.802 48.7131 128.379ZM47.9791 131.145C47.7937 131.716 47.475 132.123 47.0226 132.368C46.5703 132.613 46.0736 132.65 45.5471 132.479C45.0208 132.309 44.6426 131.997 44.4202 131.538C44.1903 131.078 44.1681 130.559 44.3534 129.988C44.5388 129.417 44.8577 129.009 45.3025 128.765C45.7548 128.52 46.2441 128.483 46.7705 128.653C47.297 128.824 47.6752 129.135 47.9049 129.595C48.1422 130.062 48.1644 130.574 47.9791 131.145Z" fill="#FFFFFF" fill-opacity="1.000000" fill-rule="nonzero"/>
	<path id="XMLID_23_" d="M58.9971 130.44C58.5522 130.099 58.0184 129.884 57.403 129.788C56.9656 129.721 56.5577 129.736 56.1722 129.832C55.7866 129.928 55.453 130.106 55.1638 130.373L55.2899 129.543L53.8737 129.328L52.5762 137.98L54.0591 138.203L54.5188 135.126C54.934 135.771 55.5642 136.157 56.4243 136.283C57.0397 136.372 57.618 136.32 58.1444 136.127C58.6709 135.934 59.1083 135.608 59.4642 135.148C59.8127 134.696 60.0426 134.147 60.1315 133.502C60.2279 132.857 60.176 132.271 59.9684 131.738C59.7682 131.226 59.442 130.789 58.9971 130.44ZM58.6263 133.295C58.5375 133.888 58.2927 134.34 57.8849 134.651C57.4772 134.963 57.0026 135.082 56.454 134.992C56.098 134.941 55.7866 134.807 55.5271 134.607C55.2676 134.399 55.0748 134.14 54.9562 133.806C54.8376 133.48 54.8005 133.117 54.8599 132.724C54.9192 132.331 55.0526 131.99 55.2676 131.715C55.4827 131.441 55.7422 131.241 56.0461 131.122C56.3575 131.004 56.6912 130.967 57.0471 131.026C57.5958 131.107 58.0184 131.359 58.3149 131.775C58.6116 132.19 58.7153 132.701 58.6263 133.295Z" fill="#FFFFFF" fill-opacity="1.000000" fill-rule="nonzero"/>
	<path id="XMLID_19_" d="M76.7029 132.435L75.4573 132.16C75.3979 132.724 75.2942 133.206 75.131 133.621L73.1514 132.079C73.7223 131.678 74.1227 131.293 74.36 130.93C74.5897 130.566 74.6862 130.173 74.6417 129.743C74.5824 129.18 74.3376 128.75 73.9003 128.461C73.4628 128.171 72.8993 128.06 72.2246 128.127C71.4905 128.201 70.9196 128.438 70.5118 128.846C70.104 129.254 69.9335 129.751 69.9928 130.344C70.0225 130.655 70.1262 130.952 70.2968 131.226C70.4673 131.5 70.7417 131.79 71.105 132.094C70.46 132.546 70.0002 132.983 69.7407 133.406C69.4738 133.829 69.37 134.303 69.4219 134.822C69.4663 135.252 69.6368 135.623 69.9335 135.934C70.2301 136.246 70.623 136.476 71.105 136.616C71.5869 136.757 72.1207 136.802 72.6991 136.75C73.7891 136.639 74.6936 136.209 75.4054 135.46L76.562 136.372L77.2887 135.319L76.1394 134.422C76.4286 133.858 76.6139 133.198 76.7029 132.435ZM71.5795 129.513C71.7574 129.328 72.0021 129.224 72.3358 129.187C72.6398 129.157 72.8844 129.202 73.0698 129.328C73.2551 129.454 73.359 129.639 73.3887 129.892C73.4109 130.121 73.3367 130.344 73.1736 130.559C73.0031 130.774 72.6991 131.033 72.2468 131.345C71.9205 131.078 71.6981 130.863 71.5795 130.707C71.4608 130.544 71.3867 130.374 71.3719 130.181C71.3274 129.921 71.4015 129.699 71.5795 129.513ZM72.6842 135.519C72.1726 135.571 71.75 135.504 71.4164 135.319C71.0828 135.134 70.8973 134.867 70.8677 134.518C70.838 134.214 70.9048 133.932 71.0753 133.673C71.2458 133.413 71.5573 133.124 72.0095 132.813L74.4341 134.711C73.9669 135.178 73.3812 135.452 72.6842 135.519Z" fill="#FFFFFF" fill-opacity="1.000000" fill-rule="nonzero"/>
	<path id="XMLID_18_" d="M89.9674 130.752L85.0812 125.643L83.4945 126.236L89.871 132.835L91.3168 132.301L91.8136 123.137L90.3529 123.678L89.9674 130.752Z" fill="#FFFFFF" fill-opacity="1.000000" fill-rule="nonzero"/>
	<path id="XMLID_17_" d="M95.7136 121.758C95.7877 121.513 95.7655 121.276 95.6395 121.039C95.5209 120.816 95.3429 120.683 95.1056 120.624C94.8684 120.564 94.6237 120.601 94.3865 120.727C94.1417 120.853 93.9861 121.039 93.9045 121.276C93.8229 121.513 93.8378 121.75 93.9564 121.973C94.0751 122.195 94.2604 122.344 94.4977 122.41C94.7423 122.477 94.9869 122.448 95.2242 122.322C95.4763 122.188 95.6321 122.003 95.7136 121.758Z" fill="#FFFFFF" fill-opacity="1.000000" fill-rule="nonzero"/>
	<path id="XMLID_16_" d="M95.0449 123.609L96.3763 122.907L99.3705 128.587L98.0391 129.289L95.0449 123.609Z" fill="#FFFFFF" fill-opacity="1.000000" fill-rule="evenodd"/>
	<path id="XMLID_15_" d="M104.841 118.251C104.166 118.147 103.499 118.325 102.839 118.785C102.453 119.059 102.149 119.363 101.927 119.704C101.704 120.045 101.578 120.408 101.541 120.794L101.067 120.112L99.8954 120.935L103.573 126.192L104.804 125.332L102.943 122.67C102.587 122.158 102.439 121.676 102.513 121.217C102.587 120.757 102.846 120.371 103.299 120.06C103.699 119.778 104.092 119.682 104.47 119.763C104.848 119.845 105.204 120.112 105.523 120.572L107.525 123.426L108.756 122.566L106.65 119.556C106.116 118.792 105.508 118.362 104.841 118.251Z" fill="#FFFFFF" fill-opacity="1.000000" fill-rule="nonzero"/>
	<path id="XMLID_12_" d="M114.806 114.603C114.798 115.255 114.546 115.826 114.035 116.316C113.634 116.701 113.212 116.924 112.752 116.983C112.292 117.042 111.862 116.931 111.477 116.657L115.095 113.157C114.969 113.009 114.873 112.898 114.806 112.823C114.346 112.349 113.849 112.03 113.301 111.867C112.752 111.704 112.211 111.689 111.662 111.83C111.114 111.971 110.617 112.26 110.172 112.698C109.719 113.135 109.408 113.632 109.238 114.188C109.067 114.744 109.06 115.292 109.201 115.856C109.341 116.412 109.631 116.916 110.068 117.369C110.505 117.821 111.01 118.132 111.566 118.288C112.122 118.444 112.693 118.436 113.271 118.266C113.849 118.095 114.398 117.761 114.902 117.272C115.303 116.887 115.592 116.479 115.792 116.049C115.992 115.619 116.066 115.174 116.037 114.729L114.806 114.603ZM110.417 114.714C110.461 114.277 110.654 113.891 110.995 113.558C111.343 113.217 111.736 113.039 112.174 113.016C112.611 112.994 113.012 113.127 113.382 113.417L110.765 115.952C110.491 115.559 110.372 115.144 110.417 114.714Z" fill="#FFFFFF" fill-opacity="1.000000" fill-rule="nonzero"/>
	<path id="XMLID_11_" d="M118.439 103.155L117.557 104.297L120.078 108.805L115.088 107.507L114.131 108.746L120.945 110.466L121.078 110.703C121.242 111.014 121.331 111.281 121.331 111.496C121.331 111.719 121.256 111.926 121.093 112.141C120.967 112.297 120.819 112.431 120.634 112.542C120.448 112.653 120.263 112.72 120.063 112.749L120.574 113.899C120.841 113.854 121.116 113.736 121.39 113.55C121.664 113.365 121.901 113.15 122.094 112.898C122.443 112.445 122.628 111.978 122.643 111.489C122.665 111 122.48 110.429 122.102 109.784L118.439 103.155Z" fill="#FFFFFF" fill-opacity="1.000000" fill-rule="nonzero"/>
	<path id="XMLID_8_" d="M122.754 97.0308C122.117 97.2456 121.56 97.7646 121.093 98.5876C120.834 99.0474 120.648 99.5146 120.53 99.9966C120.411 100.479 120.389 100.923 120.448 101.346L121.694 101.368C121.635 101.057 121.649 100.73 121.724 100.367C121.798 100.011 121.924 99.6702 122.102 99.3589C122.361 98.8992 122.665 98.6101 123.006 98.4915C123.347 98.3728 123.711 98.4321 124.104 98.647L124.185 98.6917L123.37 100.137C122.917 100.938 122.739 101.613 122.828 102.154C122.917 102.703 123.221 103.111 123.718 103.4C124.037 103.578 124.378 103.659 124.726 103.63C125.075 103.6 125.416 103.474 125.735 103.237C126.054 103.007 126.335 102.68 126.573 102.258C126.81 101.843 126.943 101.442 126.988 101.079C127.032 100.716 126.966 100.375 126.817 100.078L127.5 100.464L128.196 99.2253L124.919 97.3718C124.119 96.9343 123.399 96.8157 122.754 97.0308ZM125.698 99.5591C125.92 99.8186 126.031 100.123 126.039 100.464C126.046 100.805 125.957 101.138 125.772 101.465C125.587 101.798 125.364 102.021 125.119 102.132C124.875 102.243 124.63 102.228 124.393 102.095C123.896 101.813 123.866 101.302 124.289 100.545L125.053 99.1958L125.698 99.5591Z" fill="#FFFFFF" fill-opacity="1.000000" fill-rule="nonzero"/>
	<path id="XMLID_7_" d="M126.714 91.2769C126.521 90.8469 126.536 90.3574 126.751 89.8162C126.788 89.7197 126.847 89.616 126.914 89.5049L125.587 88.9709C125.179 89.9792 125.208 90.8171 125.668 91.4697L124.801 91.1211L124.267 92.4482L130.221 94.8433L130.784 93.4492L127.9 92.2852C127.299 92.0405 126.906 91.7068 126.714 91.2769Z" fill="#FFFFFF" fill-opacity="1.000000" fill-rule="nonzero"/>
	<path id="XMLID_4_" d="M134.484 81.3638L125.831 79.1987L125.468 80.6594L128.664 81.4602C128.323 81.6306 128.041 81.8679 127.811 82.1794C127.589 82.4834 127.418 82.8467 127.314 83.2544C127.166 83.855 127.158 84.426 127.307 84.9673C127.448 85.5085 127.729 85.9829 128.145 86.376C128.56 86.7688 129.079 87.0432 129.709 87.199C130.339 87.3547 130.932 87.3621 131.481 87.2063C132.037 87.0581 132.504 86.7764 132.89 86.3611C133.275 85.9458 133.542 85.4417 133.691 84.8486C133.794 84.4185 133.824 84.0107 133.765 83.6177C133.705 83.2249 133.557 82.8762 133.327 82.5574L134.128 82.7576L134.484 81.3638ZM132.489 84.3591C132.4 84.7078 132.245 85.0044 132.015 85.2415C131.785 85.4788 131.503 85.6494 131.17 85.7383C130.836 85.8274 130.473 85.8198 130.08 85.7234C129.694 85.6272 129.368 85.4565 129.116 85.2192C128.864 84.9819 128.686 84.7002 128.597 84.3813C128.508 84.0627 128.508 83.729 128.597 83.3806C128.686 83.032 128.841 82.7354 129.071 82.4983C129.301 82.261 129.583 82.0979 129.917 82.0015C130.25 81.9124 130.614 81.9124 131.006 82.0161C131.392 82.1125 131.718 82.2832 131.97 82.5205C132.223 82.7576 132.4 83.0396 132.489 83.3582C132.578 83.6697 132.578 84.0107 132.489 84.3591Z" fill="#FFFFFF" fill-opacity="1.000000" fill-rule="nonzero"/>
	<path id="XMLID_3_" d="M131.207 63.6135C130.74 51.7058 126.988 40.1616 120.359 30.241L119.129 31.064C125.609 40.7622 129.272 52.0396 129.731 63.6729L131.207 63.6135Z" fill="#FFFFFF" fill-opacity="1.000000" fill-rule="nonzero"/>
	<path id="XMLID_2_" d="M16.5046 31.1008L15.3109 30.2185C8.06689 39.9612 3.72205 51.5056 2.75073 63.606L4.2262 63.7246C5.18274 51.9058 9.42383 40.6211 16.5046 31.1008Z" fill="#FFFFFF" fill-opacity="1.000000" fill-rule="nonzero"/>
</svg>
