<svg width="424.000000" height="107.762451" viewBox="0 0 424 107.762" fill="none" xmlns="http://www.w3.org/2000/svg" xmlns:xlink="http://www.w3.org/1999/xlink">
	<desc>
			Created with Pixso.
	</desc>
	<defs/>
	<path id="XMLID_113_" d="M34.0585 85.0557L34.051 86.5269C34.051 86.7808 33.8494 86.9822 33.5955 86.9822L31.1238 86.9822C30.8699 86.9822 30.6683 86.7808 30.6683 86.5269L30.6758 85.0557C30.6907 75.4004 30.7056 64.9089 27.308 57.606C24.7242 55.8511 13.9415 49.4216 1.26196 54.4248C1.00806 54.5144 0.716919 54.3799 0.634766 54.1111C0.410645 53.3123 0.209106 52.5056 0.0299072 51.6843C-0.0224609 51.4602 0.104492 51.2212 0.321045 51.1392C9.11011 47.7937 17.0181 49.2649 22.4617 51.3408C21.2445 50.4224 19.8481 49.6755 18.2427 49.1453C6.68323 45.3594 1.94153 38.9302 0.0299072 33.7776C0 33.6956 -0.00744629 33.5984 0.00744629 33.5088C0.350952 31.8884 0.791504 30.3054 1.31421 28.7671C1.47852 28.2966 2.16553 28.3787 2.21777 28.864C2.64343 32.665 4.93591 39.7964 15.5619 44.5007C14.6808 38.3252 15.5992 33.0159 16.4207 28.2517C17.5781 21.5537 18.5264 16.1323 14.636 10.0464C14.509 9.84497 14.5464 9.5835 14.7256 9.42676C15.3678 8.90405 16.0175 8.39624 16.6895 7.91089C16.906 7.75391 17.2196 7.81372 17.3616 8.03784C22.0958 15.311 20.9532 21.8896 19.7511 28.8269C18.8401 34.0613 17.9066 39.4678 19.2358 45.9194C19.2507 45.927 19.2732 45.9343 19.2955 45.9343C34.1033 50.8105 34.0808 69.001 34.0585 85.0557Z" fill="#482817" fill-opacity="1.000000" fill-rule="nonzero"/>
	<path id="XMLID_112_" d="M83.5892 51.781C83.41 52.5876 83.2084 53.394 82.9844 54.1931C82.9097 54.4543 82.6184 54.5962 82.3645 54.4993C68.8412 49.4363 57.0131 55.8433 54.1531 57.6057C52.9956 62.9895 53.0031 68.7095 53.0105 72.7271L53.0105 86.5266C53.0105 86.7805 52.809 86.9822 52.5551 86.9822L50.0834 86.9822C49.8295 86.9822 49.6278 86.7805 49.6278 86.5266L49.6278 72.7344C49.6129 66.0361 49.5979 54.9922 54.5712 47.353C51.7634 44.1047 49.1276 38.9895 49.2694 33.2622C49.3813 28.4309 51.5096 24.0027 55.4 20.4631C61.4038 15.0046 62.3372 10.1135 62.0012 5.6106C61.9788 5.2373 62.3745 4.99097 62.6957 5.17017C63.5543 5.65552 64.3982 6.16333 65.2196 6.70825C65.354 6.79785 65.4362 6.93994 65.4362 7.10425C65.4362 11.7563 63.9426 17.2747 57.6776 22.9648C54.4293 25.9067 52.7417 29.4016 52.6447 33.3369C52.54 37.8323 54.504 41.887 56.6993 44.635C57.9689 43.3057 59.4548 42.1409 61.2172 41.2224C65.4884 38.9895 69.5432 38.0637 73.1125 37.2571C78.4517 36.0325 81.3116 35.241 82.4392 32.1123C82.5961 31.6716 83.2233 31.6941 83.3353 32.1421C83.6266 33.3145 83.8729 34.5017 84.0671 35.7039C84.0895 35.8459 84.0521 35.9878 83.9551 36.0923C81.5955 38.7881 77.802 39.6467 73.8667 40.5427C70.4916 41.312 66.6682 42.1855 62.7778 44.2092C59.2084 46.0762 56.9384 49.2795 55.5046 52.9983C60.9482 50.3398 71.4026 46.8601 83.2905 51.2285C83.5145 51.3181 83.6415 51.5571 83.5892 51.781Z" fill="#482817" fill-opacity="1.000000" fill-rule="nonzero"/>
	<path id="XMLID_111_" d="M52.8163 1.16016C53.1598 1.24976 53.2792 1.67529 53.0254 1.9292C51.8306 3.13892 49.8368 6.36475 49.1871 14.5938C48.5524 22.7107 44.759 29.0356 41.7048 34.1208C39.502 37.7874 37.5829 40.9834 37.3962 43.8284C40.4728 48.8762 43.5194 55.3804 43.5194 65.9019L43.5194 86.5266C43.5194 86.7805 43.3179 86.9822 43.064 86.9822L40.5923 86.9822C40.3384 86.9822 40.1367 86.7805 40.1367 86.5266L40.1367 65.8943C40.1367 54.1855 36.1716 48.0698 32.6694 42.6709C28.5698 36.3462 24.6869 30.3723 29.3763 17.9617C32.9083 8.62744 33.8193 3.34814 34.0284 0.786865C34.0435 0.577637 34.2002 0.406006 34.4093 0.368652C35.2382 0.219238 36.082 0.0998535 36.9258 0.00268555C37.2096 -0.0270996 37.4559 0.196777 37.441 0.488037C37.2916 3.34814 36.3657 9.03076 32.535 19.1638C28.6669 29.4016 31.1237 34.0312 34.8647 39.8557C35.746 37.4663 37.2096 35.032 38.8 32.3811C41.8169 27.3555 45.2369 21.658 45.8119 14.3325C46.3794 7.02197 48.0073 2.96729 49.6053 0.719482C49.7098 0.570312 49.8965 0.50293 50.0682 0.540283C51.0092 0.712158 51.9202 0.921143 52.8163 1.16016Z" fill="#482817" fill-opacity="1.000000" fill-rule="nonzero"/>
	<path id="XMLID_109_" d="M58.7379 39.7666C62.4044 38.9675 64.7267 35.3459 63.9277 31.6794L63.7709 30.9551C63.7186 30.7236 63.4872 30.5742 63.2556 30.6191L62.5314 30.7759C58.8649 31.575 56.5426 35.1965 57.3416 38.863L57.4984 39.5947C57.5507 39.8262 57.7821 39.9756 58.0135 39.9307L58.7379 39.7666Z" fill="#482817" fill-opacity="1.000000" fill-rule="nonzero"/>
	<path id="XMLID_108_" d="M57.1699 58.3228L56.5277 58.6885C56.3186 58.8081 56.2515 59.0769 56.371 59.2859L56.7368 59.9282C58.6111 63.1765 62.7704 64.2891 66.0187 62.4148L66.6609 62.0488C66.87 61.9294 66.9371 61.6606 66.8177 61.4514L66.4518 60.8093C64.5775 57.561 60.4257 56.4485 57.1699 58.3228Z" fill="#482817" fill-opacity="1.000000" fill-rule="nonzero"/>
	<path id="XMLID_107_" d="M45.4462 45.3967L44.7517 45.1428C44.5276 45.0608 44.2738 45.1802 44.1917 45.4043L43.9377 46.0986C42.6608 49.6309 44.4828 53.5212 48.0149 54.7981L48.7094 55.052C48.9333 55.1343 49.1873 55.0146 49.2694 54.7908L49.5233 54.0962C50.8002 50.5718 48.9707 46.6738 45.4462 45.3967Z" fill="#482817" fill-opacity="1.000000" fill-rule="nonzero"/>
	<path id="XMLID_106_" d="M48.0671 37.7876L48.1716 37.0557C48.209 36.8169 48.0372 36.6003 47.7982 36.563L47.0665 36.4585C43.3478 35.9282 39.9127 38.512 39.3826 42.2307L39.2781 42.9624C39.2407 43.2014 39.4125 43.418 39.6514 43.4553L40.3832 43.5598C44.1019 44.0825 47.5369 41.4988 48.0671 37.7876Z" fill="#482817" fill-opacity="1.000000" fill-rule="nonzero"/>
	<path id="XMLID_105_" d="M42.3025 18.7834L42.407 18.0515C42.4443 17.8127 42.28 17.5886 42.0411 17.5588L41.3093 17.4541C37.598 16.9016 34.1406 19.4705 33.5956 23.1816L33.491 23.9133C33.4536 24.1523 33.6179 24.3765 33.8569 24.4062L34.5887 24.5107C38.2999 25.0635 41.7499 22.4946 42.3025 18.7834Z" fill="#482817" fill-opacity="1.000000" fill-rule="nonzero"/>
	<path id="XMLID_104_" d="M25.5233 34.5542L24.8289 34.8081C21.3118 36.1074 19.5121 40.0127 20.8114 43.5374L21.0653 44.2317C21.1475 44.4558 21.4014 44.5752 21.6254 44.4932L22.3198 44.2393C25.8369 42.9399 27.6366 39.0347 26.3373 35.51L26.0834 34.8154C26.0012 34.584 25.7548 34.4719 25.5233 34.5542Z" fill="#482817" fill-opacity="1.000000" fill-rule="nonzero"/>
	<path id="XMLID_103_" d="M15.5918 26.6685C16.1219 22.9497 13.5383 19.5149 9.81958 18.9846L9.08777 18.8801C8.84875 18.8428 8.6322 19.0144 8.59497 19.2534L8.49036 19.9854C7.96021 23.7041 10.5438 27.1389 14.2551 27.6692L14.9869 27.7737C15.226 27.811 15.4425 27.6392 15.4797 27.4004L15.5918 26.6685Z" fill="#482817" fill-opacity="1.000000" fill-rule="nonzero"/>
	<path id="XMLID_102_" d="M10.7007 38.6909C13.3517 36.04 13.3517 31.7314 10.7007 29.0806L10.178 28.5579C10.0062 28.386 9.72998 28.386 9.56567 28.5579L9.04297 29.0806C6.39209 31.7314 6.39209 36.04 9.04297 38.6909L9.56567 39.2136C9.73743 39.3855 10.0138 39.3855 10.178 39.2136L10.7007 38.6909Z" fill="#482817" fill-opacity="1.000000" fill-rule="nonzero"/>
	<path id="XMLID_101_" d="M24.2015 6.85791L23.5071 6.61133C23.2831 6.5293 23.0292 6.64868 22.947 6.8728L22.7006 7.56714C21.4386 11.0994 23.2756 14.9897 26.8151 16.2517L27.5095 16.4983C27.7336 16.5803 27.9874 16.4609 28.0696 16.2368L28.316 15.5422C29.578 12.0103 27.7411 8.11987 24.2015 6.85791Z" fill="#482817" fill-opacity="1.000000" fill-rule="nonzero"/>
	<path id="XMLID_100_" d="M43.9227 9.77759L44.6396 9.95679C44.8711 10.0164 45.1101 9.87451 45.1698 9.64307L45.349 8.92627C46.2675 5.28955 44.0646 1.59326 40.4281 0.674805L39.7112 0.495605C39.4797 0.435791 39.2407 0.577637 39.181 0.809326L39.0018 1.52612C38.0758 5.1626 40.2861 8.85889 43.9227 9.77759Z" fill="#482817" fill-opacity="1.000000" fill-rule="nonzero"/>
	<path id="XMLID_99_" d="M81.7074 42.9922C78.6608 40.7969 74.4119 41.4912 72.2239 44.5378L71.7908 45.1353C71.6489 45.3296 71.6937 45.6057 71.8879 45.7402L72.4852 46.1733C75.532 48.3687 79.7809 47.6743 81.9688 44.6274L82.4019 44.0303C82.5437 43.8359 82.4989 43.5598 82.3048 43.4253L81.7074 42.9922Z" fill="#482817" fill-opacity="1.000000" fill-rule="nonzero"/>
	<path id="XMLID_98_" d="M15.4351 60.8167L15.0692 61.459C14.9497 61.668 15.0168 61.9368 15.226 62.0564L15.8682 62.4221C19.1165 64.2966 23.2758 63.1838 25.15 59.9355L25.516 59.2935C25.6354 59.0842 25.5682 58.8154 25.3591 58.696L24.7169 58.3228C21.4686 56.4482 17.3168 57.561 15.4351 60.8167Z" fill="#482817" fill-opacity="1.000000" fill-rule="nonzero"/>
	<path id="XMLID_97_" d="M71.5967 54.5295L70.8724 54.6638C70.6334 54.7087 70.4767 54.9326 70.5215 55.1716L70.6559 55.896C71.3204 59.5923 74.8525 62.0415 78.5488 61.377L79.2732 61.2424C79.5121 61.1978 79.6689 60.9736 79.6241 60.7349L79.4896 60.0105C78.8251 56.3215 75.2931 53.8647 71.5967 54.5295Z" fill="#482817" fill-opacity="1.000000" fill-rule="nonzero"/>
	<path id="XMLID_96_" d="M4.58496 60.0105L4.45056 60.7349C4.40576 60.9736 4.5625 61.1978 4.80151 61.2424L5.52576 61.377C9.22217 62.0415 12.7542 59.5847 13.4188 55.896L13.5532 55.1716C13.598 54.9326 13.4412 54.7087 13.2023 54.6638L12.4779 54.5295C8.78162 53.8647 5.24951 56.3215 4.58496 60.0105Z" fill="#482817" fill-opacity="1.000000" fill-rule="nonzero"/>
	<path id="XMLID_95_" d="M58.2749 24.7424L57.7373 25.2427C57.5581 25.407 57.5507 25.6831 57.7148 25.855L58.2152 26.3926C60.769 29.1406 65.0702 29.2974 67.8182 26.7437L68.3558 26.2432C68.535 26.0789 68.5425 25.8027 68.3783 25.6309L67.8779 25.0933C65.3241 22.3528 61.0229 22.1885 58.2749 24.7424Z" fill="#482817" fill-opacity="1.000000" fill-rule="nonzero"/>
	<path id="XMLID_94_" d="M73.3738 15.7964L73.6202 15.1018C73.7024 14.8777 73.5829 14.6238 73.3589 14.5417L72.6644 14.2954C69.1323 13.0334 65.2419 14.8704 63.98 18.4099L63.7335 19.1042C63.6514 19.3284 63.7709 19.5823 63.9949 19.6643L64.6893 19.9106C68.2213 21.1653 72.1118 19.3284 73.3738 15.7964Z" fill="#482817" fill-opacity="1.000000" fill-rule="nonzero"/>
	<path id="XMLID_93_" d="M59.761 7.61206L59.761 6.8728C59.761 6.63379 59.5668 6.4397 59.3279 6.4397L58.5886 6.4397C54.8325 6.4397 51.7933 9.479 51.7933 13.2349L51.7933 13.9741C51.7933 14.2131 51.9874 14.4072 52.2264 14.4072L52.9657 14.4072C56.7218 14.4072 59.761 11.3606 59.761 7.61206Z" fill="#482817" fill-opacity="1.000000" fill-rule="nonzero"/>
	<path id="XMLID_92_" d="M71.4995 33.6509L71.6041 34.3826C71.6415 34.6216 71.858 34.7859 72.0969 34.7485L72.8287 34.644C76.54 34.1062 79.1237 30.6638 78.5861 26.9526L78.4816 26.2207C78.4442 25.9819 78.2277 25.8176 77.9886 25.855L77.2568 25.9595C73.5457 26.4895 70.9694 29.9395 71.4995 33.6509Z" fill="#482817" fill-opacity="1.000000" fill-rule="nonzero"/>
	<path id="XMLID_87_" d="M134.12 34.4006L123.134 69.3887L122.807 69.3887L110.194 29.6504C108.436 24.1902 106.678 23.4695 101.676 22.9563L120.208 22.9563C115.916 23.3494 114.551 25.4897 115.916 30.1089L125.286 60.9365L133.738 33.8218C136.927 23.7424 134.393 23.3494 129.97 22.9563L143.828 22.9563C138.477 23.4041 137.178 24.6379 134.12 34.4006Z" fill="#482817" fill-opacity="1.000000" fill-rule="nonzero"/>
	<path id="XMLID_87_ (Stroke)" d="M101.404 22.9424C101.411 22.7971 101.531 22.6833 101.676 22.6833L120.208 22.6833C120.354 22.6833 120.474 22.7981 120.48 22.9438C120.487 23.0896 120.378 23.2148 120.233 23.2283C118.116 23.4221 116.813 24.04 116.174 25.0898C115.529 26.1489 115.501 27.7407 116.178 30.0308L125.289 60.0085L133.478 33.7395C134.272 31.2273 134.706 29.3337 134.845 27.9009C134.984 26.4651 134.825 25.5239 134.47 24.8901C134.121 24.2671 133.56 23.8999 132.793 23.6633C132.016 23.4238 131.058 23.3271 129.946 23.2283C129.801 23.2153 129.691 23.0901 129.698 22.9443C129.704 22.7983 129.824 22.6833 129.97 22.6833L143.828 22.6833C143.974 22.6833 144.095 22.7988 144.101 22.9451C144.107 23.0911 143.997 23.2163 143.851 23.2285C141.19 23.4509 139.622 23.8647 138.32 25.3645C136.988 26.8984 135.913 29.5889 134.381 34.4822L123.395 69.4705C123.359 69.5842 123.254 69.6619 123.134 69.6619L122.807 69.6619C122.688 69.6619 122.583 69.5847 122.547 69.4714L109.934 29.7341C109.059 27.0168 108.202 25.5432 106.992 24.6697C105.774 23.791 104.155 23.4851 101.648 23.228C101.504 23.2131 101.396 23.0876 101.404 22.9424ZM125.429 61.1689C125.387 61.1951 125.337 61.2097 125.285 61.2095C125.165 61.2092 125.059 61.1306 125.024 61.0159L115.654 30.1865C114.966 27.8579 114.938 26.0701 115.708 24.8059C116.139 24.0967 116.803 23.5813 117.683 23.2292L105.102 23.2292C105.951 23.4575 106.677 23.769 107.311 24.2271C108.67 25.207 109.571 26.8242 110.454 29.5667L110.454 29.5679L122.97 69.0007L125.429 61.1689ZM134.246 33.1008C134.891 30.9614 135.259 29.2798 135.388 27.9536C135.532 26.4685 135.38 25.397 134.947 24.6235C134.553 23.9207 133.949 23.4985 133.214 23.2292L140.609 23.2292C139.555 23.5706 138.687 24.1089 137.908 25.0063C136.611 26.5005 135.578 28.9727 134.246 33.1008Z" fill="#482817" fill-opacity="1.000000" fill-rule="evenodd"/>
	<path id="XMLID_85_" d="M157.86 68.4714L142.9 68.4714C145.826 68.0781 147.781 67.4995 147.781 62.1594L147.781 29.2571C147.781 23.9282 145.826 23.3384 142.9 22.9453L157.86 22.9453C154.999 23.3384 152.979 23.9172 152.979 29.2571L152.979 62.1704C152.99 67.4995 154.999 68.0891 157.86 68.4714Z" fill="#482817" fill-opacity="1.000000" fill-rule="nonzero"/>
	<path id="XMLID_85_ (Stroke)" d="M142.628 22.9275C142.637 22.7839 142.756 22.6726 142.9 22.6726L157.861 22.6726C158.004 22.6726 158.123 22.7837 158.133 22.927C158.143 23.0703 158.04 23.1965 157.898 23.2161C156.459 23.4138 155.33 23.6511 154.54 24.4397C153.755 25.2229 153.252 26.6099 153.252 29.2576L153.252 62.1702C153.252 62.1704 153.252 62.1704 153.252 62.1707C153.258 64.8127 153.761 66.2 154.544 66.9832C155.332 67.7715 156.459 68.009 157.897 68.2012C158.039 68.22 158.142 68.3464 158.133 68.4897C158.123 68.6333 158.004 68.7446 157.861 68.7446L142.9 68.7446C142.756 68.7446 142.637 68.6333 142.628 68.49C142.618 68.3464 142.721 68.2202 142.864 68.2012C144.336 68.0034 145.463 67.7656 146.244 66.9785C147.021 66.196 147.508 64.8096 147.508 62.1599L147.508 29.2576C147.508 26.6133 147.021 25.2266 146.244 24.4426C145.463 23.6543 144.335 23.4138 142.864 23.2161C142.721 23.197 142.618 23.0708 142.628 22.9275ZM145.339 23.2185C145.822 23.4146 146.258 23.6809 146.632 24.0583C147.565 24.9998 148.054 26.5725 148.054 29.2576L148.054 62.1599C148.054 64.8501 147.565 66.4229 146.632 67.363C146.259 67.7388 145.824 68.0037 145.344 68.1987L155.435 68.1987C154.961 68.0044 154.53 67.7412 154.158 67.3694C153.219 66.4299 152.712 64.8579 152.706 62.1714L152.706 62.1707L152.706 29.2576C152.706 26.5652 153.213 24.9927 154.154 24.0532C154.53 23.6782 154.966 23.4136 155.446 23.2185L145.339 23.2185Z" fill="#482817" fill-opacity="1.000000" fill-rule="evenodd"/>
	<path id="XMLID_83_" d="M191.101 32.5115L191.101 69.3232L190.512 69.3232L167.361 28.2854L167.361 58.9163C167.361 64.2454 169.316 68.0891 172.177 68.4714L161.901 68.4714C164.828 68.0784 166.782 64.2454 166.782 58.9163L166.782 31.7361C166.782 26.407 165.221 23.9937 161.901 22.9563L170.746 22.9563L190.577 57.8135L190.577 32.5115C190.577 27.1824 188.557 23.3386 185.696 22.9563L195.972 22.9563C193.111 23.3386 191.101 27.1824 191.101 32.5115Z" fill="#482817" fill-opacity="1.000000" fill-rule="nonzero"/>
	<path id="XMLID_83_ (Stroke)" d="M161.631 22.9153C161.651 22.7817 161.766 22.6833 161.901 22.6833L170.746 22.6833C170.844 22.6833 170.935 22.7361 170.983 22.8213L190.304 56.7815L190.304 32.5115C190.304 29.8782 189.805 27.6304 188.967 26.0039C188.128 24.3748 186.97 23.4021 185.66 23.2271C185.517 23.208 185.414 23.0818 185.423 22.9382C185.433 22.7949 185.552 22.6833 185.696 22.6833L195.972 22.6833C196.115 22.6833 196.235 22.7949 196.244 22.9382C196.254 23.0818 196.15 23.208 196.008 23.2271C194.698 23.4019 193.543 24.3745 192.706 26.0037C191.871 27.6301 191.374 29.8779 191.374 32.5115L191.374 69.3232C191.374 69.4741 191.252 69.5962 191.101 69.5962L190.512 69.5962C190.413 69.5962 190.322 69.5432 190.274 69.4573L167.634 29.325L167.634 58.9163C167.634 61.551 168.118 63.7993 168.94 65.4258C169.763 67.0547 170.904 68.0261 172.213 68.2009C172.355 68.22 172.459 68.3462 172.449 68.4895C172.44 68.6331 172.32 68.7444 172.177 68.7444L161.901 68.7444C161.757 68.7444 161.638 68.6331 161.628 68.4897C161.619 68.3464 161.722 68.22 161.865 68.2009C163.209 68.0203 164.366 67.0464 165.196 65.4207C166.025 63.7961 166.509 61.551 166.509 58.9163L166.509 31.7361C166.509 29.0925 166.121 27.2124 165.35 25.873C164.586 24.5454 163.428 23.7197 161.819 23.217C161.691 23.1768 161.611 23.0486 161.631 22.9153ZM163.307 23.2292C164.372 23.7734 165.211 24.5381 165.823 25.6006C166.663 27.0596 167.055 29.0508 167.055 31.7361L167.055 58.9163C167.055 61.6106 166.562 63.9468 165.682 65.6689C165.109 66.7917 164.364 67.6667 163.475 68.1985L170.624 68.1985C169.753 67.667 169.018 66.7922 168.452 65.6721C167.582 63.949 167.088 61.6106 167.088 58.9163L167.088 28.2854C167.088 28.1614 167.172 28.0527 167.292 28.0212C167.412 27.9897 167.538 28.0432 167.599 28.1511L190.671 69.0503L190.828 69.0503L190.828 57.9204C190.796 57.9961 190.73 58.0554 190.647 58.0774C190.527 58.1091 190.401 58.0562 190.34 57.9485L170.587 23.2292L163.307 23.2292ZM190.839 31.833C190.917 29.4233 191.411 27.3311 192.221 25.7542C192.796 24.6343 193.539 23.7605 194.415 23.2292L187.254 23.2292C188.131 23.7603 188.875 24.6343 189.452 25.7539C190.264 27.3308 190.761 29.4233 190.839 31.833Z" fill="#482817" fill-opacity="1.000000" fill-rule="evenodd"/>
	<path id="XMLID_80_" d="M254.773 75.9517C246.517 75.9517 237.344 73.1562 232.201 63.9834C228.947 58.1956 226.675 54.5483 224.011 54.5483L220.243 54.5483L220.243 62.1597C220.243 67.4888 222.263 68.0784 225.125 68.4714L210.164 68.4714C213.091 68.0784 215.045 67.4995 215.045 62.1597L215.045 29.2573C215.045 23.9282 213.091 23.3386 210.164 22.9453L224.011 22.9453C244.824 22.8799 245.665 52.0149 226.544 54.3625C232.135 55.0725 234.734 58.2612 237.792 63.0769C243.776 72.3809 252.163 75.0454 258.868 75.0454C261.205 75.0454 263.29 74.7178 264.983 74.27L265.049 74.5322C262.122 75.373 258.54 75.9517 254.773 75.9517ZM220.243 53.9695L224.011 53.9695C238.644 53.9695 238.709 23.5352 224.011 23.5352L223.88 23.5352C221.215 23.5352 220.243 24.1904 220.243 28.9951L220.243 53.9695Z" fill="#482817" fill-opacity="1.000000" fill-rule="nonzero"/>
	<path id="XMLID_80_ (Stroke)" d="M235.681 27.688C233.03 24.9856 229.147 23.2026 224.011 23.2188L224.011 23.2188L212.602 23.2188C213.086 23.4148 213.522 23.6809 213.896 24.0586C214.828 25 215.318 26.5725 215.318 29.2576L215.318 62.1599C215.318 64.8501 214.829 66.4231 213.896 67.3633C213.523 67.7388 213.088 68.0037 212.607 68.1987L222.715 68.1987C222.233 68.0029 221.795 67.7368 221.418 67.3599C220.477 66.4192 219.97 64.8469 219.97 62.1599L219.97 54.5486C219.97 54.3977 220.092 54.2756 220.243 54.2756L224.011 54.2756C225.476 54.2756 226.781 55.2786 228.098 56.9253C229.422 58.5808 230.814 60.9595 232.439 63.8499L232.439 63.8501C237.516 72.905 246.573 75.679 254.773 75.679C256.656 75.679 258.492 75.5334 260.221 75.2825C259.781 75.3062 259.329 75.3186 258.868 75.3186C252.086 75.3186 243.605 72.6199 237.562 63.2249L237.561 63.2236C236.034 60.8174 234.638 58.8467 232.94 57.3875C231.251 55.9353 229.254 54.9822 226.51 54.6338C226.373 54.6165 226.271 54.5 226.271 54.3623C226.271 54.2246 226.374 54.1089 226.511 54.092C235.902 52.9387 240.396 45.2183 239.98 37.7644C239.773 34.0383 238.337 30.3943 235.681 27.688ZM228.152 54.3728C236.808 52.5491 240.93 44.9915 240.526 37.7341C240.311 33.8914 238.83 30.1172 236.071 27.3057C233.309 24.4905 229.282 22.6562 224.01 22.6726L210.164 22.6726C210.02 22.6726 209.901 22.7842 209.891 22.9275C209.882 23.0708 209.985 23.1973 210.128 23.2163C211.599 23.4138 212.727 23.6543 213.508 24.4429C214.285 25.2268 214.772 26.6135 214.772 29.2576L214.772 62.1599C214.772 64.8096 214.284 66.196 213.508 66.9788C212.727 67.7659 211.599 68.0034 210.128 68.2012C209.985 68.2202 209.882 68.3467 209.891 68.49C209.901 68.6333 210.02 68.7449 210.164 68.7449L225.124 68.7449C225.268 68.7449 225.387 68.6335 225.397 68.4905C225.407 68.3472 225.304 68.2209 225.162 68.2014C223.724 68.0037 222.594 67.7637 221.804 66.9739C221.019 66.1892 220.516 64.8018 220.516 62.1599L220.516 54.8215L224.011 54.8215C225.21 54.8215 226.373 55.6423 227.671 57.2661C228.963 58.8811 230.334 61.22 231.963 64.1174C237.172 73.4082 246.461 76.2251 254.773 76.2251C258.567 76.2251 262.174 75.6423 265.124 74.7949C265.265 74.7542 265.349 74.6089 265.313 74.4663L265.248 74.2041C265.23 74.1333 265.185 74.0725 265.122 74.0354C265.059 73.998 264.984 73.9878 264.913 74.0063C263.242 74.4485 261.179 74.7727 258.868 74.7727C252.239 74.7727 243.948 72.1426 238.022 62.9304C236.492 60.521 235.06 58.4895 233.296 56.9734C231.867 55.7449 230.226 54.8594 228.152 54.3728ZM220.844 24.2993C221.507 23.4194 222.546 23.2625 223.88 23.2625L224.011 23.2625C227.796 23.2625 230.627 25.2278 232.499 28.1433C234.366 31.0508 235.287 34.9099 235.283 38.7529C235.279 42.5959 234.35 46.4548 232.481 49.3621C230.607 52.2771 227.78 54.2429 224.011 54.2429L220.243 54.2429C220.092 54.2429 219.97 54.1206 219.97 53.9697L219.97 28.9954C219.97 27.7874 220.031 26.8271 220.168 26.0669C220.305 25.3074 220.521 24.7288 220.844 24.2993ZM220.516 53.6968L224.011 53.6968C227.558 53.6968 230.227 51.8582 232.021 49.0669C233.821 46.2678 234.733 42.5178 234.737 38.7524C234.741 34.9868 233.837 31.2371 232.04 28.4382C230.247 25.6475 227.575 23.8083 224.011 23.8083L223.88 23.8083C222.548 23.8083 221.769 23.979 221.28 24.6279C221.028 24.9629 220.834 25.449 220.705 26.1636C220.577 26.8777 220.516 27.8013 220.516 28.9954L220.516 53.6968Z" fill="#482817" fill-opacity="1.000000" fill-rule="evenodd"/>
	<path id="XMLID_77_" d="M269.144 69.4543C257.241 69.4543 245.403 61.5154 245.403 45.7141C245.403 29.8472 257.306 21.9736 269.144 21.9736C281.047 21.9736 292.884 29.8472 292.884 45.7141C292.884 61.5154 280.981 69.4543 269.144 69.4543ZM271.098 68.5371C279.616 68.5371 287.62 61.9084 287.686 48.9573C287.817 31.7253 276.755 22.8799 266.676 22.8799C258.289 22.8799 250.612 28.9954 250.612 41.5425C250.612 59.6919 261.216 68.5371 271.098 68.5371Z" fill="#482817" fill-opacity="1.000000" fill-rule="nonzero"/>
	<path id="XMLID_77_ (Stroke)" d="M253.016 28.0977C248.622 31.9951 245.676 37.8545 245.676 45.7139C245.676 53.5405 248.605 59.4001 252.992 63.3057C257.383 67.2156 263.251 69.1812 269.144 69.1812C275.004 69.1812 280.872 67.2158 285.272 63.3054C289.666 59.3997 292.611 53.54 292.611 45.7139C292.611 37.854 289.682 31.9946 285.296 28.0977C280.905 24.196 275.038 22.2463 269.144 22.2463C263.283 22.2463 257.415 24.1958 253.016 28.0977ZM252.653 27.6892C257.165 23.6877 263.167 21.7004 269.144 21.7004C275.153 21.7004 281.155 23.6875 285.659 27.6895C290.168 31.6958 293.157 37.7068 293.157 45.7139C293.157 53.689 290.151 59.6995 285.634 63.7136C281.123 67.7231 275.121 69.7273 269.144 69.7273C263.134 69.7273 257.132 67.7234 252.628 63.7134C248.12 59.6992 245.13 53.6885 245.13 45.7139C245.13 37.7063 248.137 31.6953 252.653 27.6892ZM255.302 27.3169C258.326 24.1609 262.416 22.6067 266.676 22.6067C276.926 22.6067 288.091 31.5959 287.959 48.959C287.926 55.4915 285.89 60.4563 282.761 63.7905C279.633 67.124 275.429 68.8098 271.098 68.8098C261.03 68.8098 250.339 59.8047 250.339 41.5422C250.339 35.2119 252.277 30.4739 255.302 27.3169ZM287.959 48.959C287.959 48.959 287.959 48.959 287.959 48.9592L287.686 48.957L287.959 48.9585C287.959 48.9587 287.959 48.9587 287.959 48.959ZM255.696 27.6948C252.786 30.7322 250.885 35.3257 250.885 41.5422C250.885 59.5786 261.402 68.2639 271.098 68.2639C275.285 68.2639 279.343 66.6355 282.363 63.417C285.382 60.199 287.381 55.3743 287.413 48.9558L287.413 48.9551C287.543 31.8542 276.584 23.1528 266.676 23.1528C262.549 23.1528 258.607 24.6565 255.696 27.6948Z" fill="#482817" fill-opacity="1.000000" fill-rule="evenodd"/>
	<path id="XMLID_75_" d="M314.67 69.4541C307.648 69.4541 300.692 64.573 300.746 54.8867L300.746 29.2571C300.746 23.9282 298.792 23.3384 295.865 22.9453L310.891 22.9453C307.965 23.3384 306.01 23.9172 306.01 29.2571L306.01 54.8757C306.01 63.5901 311.339 67.7507 316.745 67.7507C322.336 67.7507 327.992 63.3279 327.992 54.8757L327.992 32.5115C327.992 27.1824 326.038 23.3384 323.111 22.9563L333.387 22.9563C330.526 23.3494 328.571 27.1824 328.571 32.5115L328.571 54.8867C328.724 64.573 321.691 69.4541 314.67 69.4541Z" fill="#482817" fill-opacity="1.000000" fill-rule="nonzero"/>
	<path id="XMLID_75_ (Stroke)" d="M295.593 22.9275C295.602 22.7839 295.721 22.6726 295.865 22.6726L310.891 22.6726C311.035 22.6726 311.154 22.7839 311.164 22.9275C311.173 23.0708 311.07 23.197 310.928 23.2161C309.456 23.4138 308.328 23.6516 307.547 24.4387C306.771 25.2212 306.283 26.6077 306.283 29.2576L306.283 54.876C306.283 59.1763 307.597 62.3237 309.549 64.394C311.502 66.4656 314.112 67.478 316.745 67.478C322.179 67.478 327.719 63.1833 327.719 54.876L327.719 32.5117C327.719 29.877 327.235 27.6292 326.406 26.0032C325.576 24.376 324.419 23.4026 323.076 23.2273C322.933 23.2085 322.829 23.0825 322.839 22.9387C322.848 22.7952 322.967 22.6836 323.111 22.6836L333.387 22.6836C333.53 22.6836 333.649 22.7947 333.659 22.938C333.669 23.0811 333.566 23.2075 333.424 23.2271C332.114 23.407 330.972 24.3792 330.15 26.0063C329.328 27.6316 328.844 29.877 328.844 32.5117L328.844 54.8848C328.921 59.7988 327.174 63.5161 324.497 66.0032C321.824 68.4861 318.242 69.7275 314.67 69.7275C311.097 69.7275 307.534 68.4861 304.868 66.0029C302.199 63.5159 300.446 59.7993 300.473 54.8862L300.473 29.2576C300.473 26.6133 299.986 25.2266 299.209 24.4426C298.428 23.6543 297.3 23.4138 295.829 23.2161C295.686 23.197 295.583 23.0708 295.593 22.9275ZM298.304 23.2185C298.787 23.4146 299.223 23.6809 299.597 24.0583C300.53 24.9998 301.019 26.5725 301.019 29.2576L301.019 54.887L301.019 54.8884C300.993 59.6614 302.691 63.228 305.241 65.6033C307.795 67.9824 311.22 69.1814 314.67 69.1814C318.119 69.1814 321.564 67.9822 324.125 65.603C326.681 63.2283 328.373 59.6624 328.298 54.8914L328.298 54.887L328.298 54.887L328.298 32.5117C328.298 29.8174 328.792 27.4817 329.662 25.76C330.23 24.6377 330.966 23.7617 331.841 23.2295L324.692 23.2295C325.577 23.7605 326.32 24.6343 326.892 25.7549C327.772 27.4788 328.265 29.8174 328.265 32.5117L328.265 54.876C328.265 63.4731 322.492 68.0239 316.745 68.0239C313.971 68.0239 311.214 66.9561 309.152 64.7686C307.088 62.5801 305.737 59.2903 305.737 54.876L305.737 29.2576C305.737 26.5671 306.227 24.9944 307.159 24.0542C307.532 23.6785 307.967 23.4138 308.448 23.2185L298.304 23.2185Z" fill="#482817" fill-opacity="1.000000" fill-rule="evenodd"/>
	<path id="XMLID_73_" d="M359.606 69.3887C347.31 69.3887 335.735 61.4497 335.735 46.1069C335.735 30.5022 347.769 22.1045 360.185 22.1045C365.907 22.1045 371.695 23.8625 376.51 27.499L374.49 36.8684C375.331 29.8469 369.937 22.8906 361.419 22.8906C350.619 22.5632 341.522 30.1089 341.577 44.0977C341.577 61.0676 352.246 68.2202 361.288 68.2202C367.851 68.2202 373.584 64.3872 373.584 57.7478L373.584 52.9976C373.584 47.6685 371.629 47.0134 368.703 46.6858L383.663 46.6858C380.802 47.0134 378.782 47.6577 378.782 52.9976L378.782 68.8645C378.072 66.7131 377.024 65.7415 375.397 65.7415C374.359 65.7415 373.191 66.1345 371.695 66.7131C367.873 68.4714 363.712 69.3887 359.606 69.3887Z" fill="#482817" fill-opacity="1.000000" fill-rule="nonzero"/>
	<path id="XMLID_73_ (Stroke)" d="M343.485 28.458C338.984 32.4551 336.008 38.3806 336.008 46.1069C336.008 53.7039 338.871 59.4482 343.24 63.2966C347.614 67.1492 353.514 69.1157 359.606 69.1157C363.672 69.1157 367.794 68.2073 371.58 66.4653C371.586 66.4629 371.591 66.4607 371.596 66.4587C373.086 65.8823 374.3 65.4685 375.396 65.4685C376.271 65.4685 377.008 65.7322 377.618 66.2957C377.958 66.6094 378.252 67.0103 378.509 67.4973L378.509 52.9976C378.509 50.3054 379.016 48.7173 379.956 47.7698C380.313 47.4092 380.726 47.1501 381.178 46.9587L371.211 46.9587C371.667 47.1514 372.079 47.4119 372.435 47.7749C373.367 48.7244 373.857 50.3127 373.857 52.9976L373.857 57.7478C373.857 61.1548 372.382 63.8501 370.067 65.6877C367.756 67.5208 364.619 68.4932 361.288 68.4932C356.697 68.4932 351.697 66.6777 347.846 62.7129C343.991 58.7451 341.304 52.6426 341.304 44.0981C341.304 44.0981 341.304 44.0979 341.304 44.0977L341.577 44.0977L341.304 44.0989C341.304 44.0986 341.304 44.0984 341.304 44.0981C341.276 37.043 343.558 31.5854 347.235 27.9319C350.91 24.2803 355.958 22.4531 361.423 22.6177C361.422 22.6177 361.42 22.6177 361.419 22.6177L361.419 22.8909L361.427 22.6179C361.426 22.6179 361.424 22.6179 361.423 22.6177C369.005 22.6199 374.174 28.0364 374.788 34.1929L374.223 36.811L374.49 36.8687L374.761 36.9011C374.87 35.9922 374.877 35.0847 374.788 34.1929L376.207 27.6125C376.253 27.6472 376.299 27.6819 376.346 27.717L376.51 27.499L376.243 27.4417L376.207 27.6125C371.469 24.085 365.797 22.3774 360.185 22.3774C354.036 22.3774 347.99 24.457 343.485 28.458ZM343.122 28.0498C347.738 23.9507 353.917 21.8315 360.185 21.8315C365.962 21.8315 371.808 23.6067 376.675 27.2812C376.76 27.3452 376.8 27.4526 376.777 27.5566L374.757 36.926C374.726 37.0686 374.589 37.1619 374.445 37.1379C374.301 37.1138 374.202 36.981 374.219 36.8362C375.041 29.9753 369.771 23.1638 361.419 23.1638L361.41 23.1638L361.41 23.1636C356.077 23.002 351.178 24.7837 347.62 28.3193C344.062 31.854 341.823 37.1633 341.85 44.0967L341.85 44.0977C341.85 52.5229 344.497 58.4817 348.237 62.3325C351.981 66.1863 356.837 67.9473 361.288 67.9473C364.519 67.9473 367.53 67.0034 369.727 65.26C371.919 63.5212 373.311 60.9805 373.311 57.7478L373.311 52.9976C373.311 50.3535 372.823 48.9497 372.046 48.1575C371.266 47.3625 370.139 47.1213 368.672 46.957C368.528 46.9409 368.422 46.8152 368.43 46.6707C368.438 46.5259 368.558 46.4128 368.702 46.4128L383.663 46.4128C383.808 46.4128 383.927 46.5256 383.936 46.6702C383.944 46.8147 383.838 46.9404 383.694 46.957C382.26 47.1211 381.132 47.3596 380.343 48.1543C379.558 48.9458 379.055 50.3499 379.055 52.9976L379.055 68.8645C379.055 68.9985 378.957 69.1128 378.825 69.134C378.693 69.1553 378.564 69.0774 378.522 68.9502C378.175 67.8965 377.754 67.1646 377.248 66.6968C376.75 66.2366 376.149 66.0144 375.396 66.0144C374.419 66.0144 373.299 66.3853 371.801 66.9648C367.946 68.7368 363.749 69.6616 359.606 69.6616C353.401 69.6616 347.366 67.6589 342.879 63.7063C338.386 59.7493 335.462 53.8528 335.462 46.1069C335.462 38.2285 338.502 32.1528 343.122 28.0498Z" fill="#482817" fill-opacity="1.000000" fill-rule="evenodd"/>
	<path id="XMLID_71_" d="M413.792 68.4058L413.792 68.4714L385.367 68.4714C388.293 68.0781 390.248 67.4995 390.248 62.1594L390.248 29.2571C390.248 23.9282 388.293 23.3384 385.367 22.9453L413.005 22.9453L414.895 33.9966C414.185 31.8452 413.005 23.5242 402.992 23.5242L395.446 23.5242L395.446 44.2068L403.964 44.2068C408.124 44.2068 408.517 40.4939 408.91 38.0916L408.91 50.9009C408.517 48.564 408.135 44.7856 403.964 44.7856L395.446 44.7856L395.446 62.4106C395.446 67.2266 395.839 67.8708 401.43 67.8708L403.767 67.8708C413.781 67.8708 414.949 59.5496 415.67 57.3984L413.792 68.4058Z" fill="#482817" fill-opacity="1.000000" fill-rule="nonzero"/>
	<path id="XMLID_71_ (Stroke)" d="M385.094 22.9275C385.104 22.7839 385.223 22.6726 385.367 22.6726L413.005 22.6726C413.138 22.6726 413.252 22.7686 413.275 22.8997L415.164 33.9507C415.188 34.0916 415.099 34.2273 414.961 34.2617C414.822 34.2961 414.68 34.218 414.635 34.0823C414.561 33.856 414.483 33.5715 414.392 33.2427C414.036 31.9431 413.489 29.95 412.208 28.1099C410.622 25.8313 407.906 23.7974 402.992 23.7974L395.719 23.7974L395.719 43.9341L403.964 43.9341C404.962 43.9341 405.715 43.7119 406.294 43.3567C406.873 43.0015 407.294 42.502 407.61 41.9202C408.193 40.8477 408.403 39.5312 408.587 38.3828C408.605 38.2693 408.623 38.1575 408.641 38.0479C408.664 37.9075 408.791 37.8081 408.932 37.8198C409.074 37.8313 409.183 37.9497 409.183 38.0918L409.183 50.9011C409.183 51.0432 409.075 51.1614 408.933 51.1731C408.792 51.1851 408.665 51.0864 408.641 50.9465C408.62 50.8218 408.599 50.6941 408.578 50.564C408.397 49.4517 408.186 48.1594 407.614 47.0967C407.298 46.5103 406.876 46.0049 406.297 45.6445C405.718 45.2849 404.964 45.0588 403.964 45.0588L395.719 45.0588L395.719 62.4109C395.719 63.6169 395.744 64.5383 395.864 65.2505C395.983 65.9587 396.191 66.425 396.53 66.7498C396.872 67.0767 397.382 67.2942 398.181 67.4258C398.98 67.5574 400.033 67.5981 401.43 67.5981L403.767 67.5981C408.681 67.5981 411.395 65.564 412.979 63.2856C414.252 61.4563 414.799 59.4768 415.159 58.1763C415.252 57.8369 415.333 57.5439 415.411 57.312C415.456 57.1768 415.598 57.0991 415.736 57.1338C415.875 57.1687 415.963 57.304 415.939 57.4446L414.065 68.4292L414.065 68.4717C414.065 68.6223 413.942 68.7446 413.792 68.7446L385.367 68.7446C385.223 68.7446 385.104 68.6333 385.094 68.49C385.085 68.3464 385.188 68.2202 385.33 68.2012C386.802 68.0034 387.93 67.7656 388.711 66.9785C389.487 66.196 389.975 64.8096 389.975 62.1599L389.975 29.2576C389.975 26.6133 389.487 25.2266 388.711 24.4426C387.93 23.6543 386.802 23.4138 385.33 23.2161C385.188 23.197 385.085 23.0708 385.094 22.9275ZM387.805 23.2185C388.288 23.4146 388.725 23.6809 389.099 24.0583C390.031 24.9998 390.521 26.5725 390.521 29.2576L390.521 62.1599C390.521 64.8501 390.031 66.4229 389.099 67.363C388.726 67.7388 388.291 68.0037 387.81 68.1987L413.55 68.1987L414.754 61.1411C414.42 61.9434 413.991 62.7876 413.427 63.5974C411.744 66.0176 408.866 68.144 403.767 68.144L401.43 68.144C400.031 68.144 398.939 68.104 398.092 67.9646C397.244 67.825 396.608 67.5803 396.153 67.144C395.694 66.7056 395.455 66.1079 395.325 65.3411C395.197 64.5779 395.173 63.613 395.173 62.4109L395.173 44.7859C395.173 44.635 395.295 44.5129 395.446 44.5129L403.964 44.5129C405.049 44.5129 405.907 44.7593 406.585 45.1809C407.263 45.6021 407.744 46.1873 408.094 46.8376C408.323 47.2632 408.499 47.7212 408.637 48.1853L408.637 40.8289C408.497 41.2959 408.321 41.7551 408.09 42.1807C407.738 42.8274 407.257 43.4062 406.579 43.822C405.902 44.2383 405.046 44.4802 403.964 44.4802L395.446 44.4802C395.295 44.4802 395.173 44.3579 395.173 44.207L395.173 23.5244C395.173 23.3735 395.295 23.2515 395.446 23.2515L402.992 23.2515C408.091 23.2515 410.972 25.3779 412.656 27.7979C413.214 28.5996 413.641 29.4348 413.974 30.2297L412.775 23.2185L387.805 23.2185Z" fill="#482817" fill-opacity="1.000000" fill-rule="evenodd"/>
</svg>
