<svg width="80.510864" height="89.575867" viewBox="0 0 80.5109 89.5759" fill="none" xmlns="http://www.w3.org/2000/svg" xmlns:xlink="http://www.w3.org/1999/xlink">
	<desc>
			Created with Pixso.
	</desc>
	<defs/>
	<path id="Vector" d="M23.8601 89.3209L0.98645 89.3209C0.79248 89.3209 0.606323 89.2439 0.469177 89.1067C0.33197 88.9695 0.254944 88.7834 0.254944 88.5894L0.254944 49.3631C0.254944 49.2654 0.27478 49.1686 0.313416 49.0788L7.8042 31.2589L7.8042 0.98645C7.8042 0.792442 7.88129 0.606377 8.01849 0.469193C8.1557 0.332001 8.34167 0.254929 8.53571 0.254929L16.3066 0.254929C16.5006 0.254929 16.6867 0.332001 16.8239 0.469193C16.9611 0.606377 17.0381 0.792442 17.0381 0.98645L17.0381 31.2589L24.5289 49.0788C24.5675 49.1686 24.5875 49.2654 24.5875 49.3631L24.5875 88.5894C24.5875 88.7827 24.511 88.9681 24.3747 89.1052C24.2384 89.2423 24.0534 89.3198 23.8601 89.3209ZM1.70544 87.8579L23.116 87.8579L23.116 49.5177L15.6253 31.6979C15.5871 31.6079 15.5671 31.5113 15.5667 31.4136L15.5667 1.73466L9.2547 1.73466L9.2547 31.4136C9.25421 31.5113 9.23438 31.6079 9.19623 31.6979L1.71802 49.5177L1.70544 87.8579Z" fill="#AF6900" fill-opacity="1.000000" fill-rule="nonzero"/>
	<path id="Vector" d="M0.98645 89.3209C0.79248 89.3209 0.606323 89.2439 0.469177 89.1067C0.33197 88.9695 0.254944 88.7834 0.254944 88.5894L0.254944 49.3631C0.254944 49.2654 0.27478 49.1686 0.313416 49.0788L7.8042 31.2589L7.8042 0.98645C7.8042 0.792442 7.88129 0.606377 8.01849 0.469193C8.1557 0.332001 8.34167 0.254929 8.53571 0.254929L16.3066 0.254929C16.5006 0.254929 16.6867 0.332001 16.8239 0.469193C16.9611 0.606377 17.0381 0.792442 17.0381 0.98645L17.0381 31.2589L24.5289 49.0788C24.5675 49.1686 24.5875 49.2654 24.5875 49.3631L24.5875 88.5894C24.5875 88.7827 24.511 88.9681 24.3747 89.1052C24.2384 89.2423 24.0534 89.3198 23.8601 89.3209L0.98645 89.3209ZM23.116 87.8579L23.116 49.5177L15.6253 31.6979C15.5871 31.6079 15.5671 31.5113 15.5667 31.4136L15.5667 1.73466L9.2547 1.73466L9.2547 31.4136C9.25421 31.5113 9.23438 31.6079 9.19623 31.6979L1.71802 49.5177L1.70544 87.8579L23.116 87.8579Z" stroke="#AF6900" stroke-opacity="1.000000" stroke-width="0.509851"/>
	<path id="Vector" d="M5.59698 81.8046C5.40302 81.8046 5.21698 81.7275 5.07977 81.5903C4.94263 81.4531 4.86548 81.2671 4.86548 81.0731L4.86548 60.557C4.86548 60.363 4.94263 60.1769 5.07977 60.0397C5.21698 59.9026 5.40302 59.8255 5.59698 59.8255C5.79102 59.8255 5.97711 59.9026 6.11432 60.0397C6.25153 60.1769 6.32855 60.363 6.32855 60.557L6.32855 81.0731C6.32855 81.2671 6.25153 81.4531 6.11432 81.5903C5.97711 81.7275 5.79102 81.8046 5.59698 81.8046Z" fill="#AF6900" fill-opacity="1.000000" fill-rule="nonzero"/>
	<path id="Vector" d="M5.07977 81.5903C4.94263 81.4531 4.86548 81.2671 4.86548 81.0731L4.86548 60.557C4.86548 60.363 4.94263 60.1769 5.07977 60.0397C5.21698 59.9026 5.40302 59.8255 5.59698 59.8255C5.79102 59.8255 5.97711 59.9026 6.11432 60.0397C6.25153 60.1769 6.32855 60.363 6.32855 60.557L6.32855 81.0731C6.32855 81.2671 6.25153 81.4531 6.11432 81.5903C5.97711 81.7275 5.79102 81.8046 5.59698 81.8046C5.40302 81.8046 5.21698 81.7275 5.07977 81.5903Z" stroke="#AF6900" stroke-opacity="1.000000" stroke-width="0.509851"/>
	<path id="Vector" d="M48.1633 85.358C40.7161 85.3533 33.5015 82.7632 27.7518 78.0303C27.6776 77.969 27.6163 77.8939 27.5713 77.8089C27.5262 77.724 27.4984 77.6311 27.4893 77.5354C27.4802 77.4397 27.4899 77.3432 27.5181 77.2513C27.5463 77.1594 27.5923 77.074 27.6536 76.9999C27.7148 76.9258 27.79 76.8644 27.8749 76.8194C27.9598 76.7743 28.0527 76.7464 28.1484 76.7373C28.2441 76.7282 28.3406 76.738 28.4326 76.7662C28.5244 76.7944 28.6099 76.8404 28.684 76.9016C33.439 80.8187 39.2649 83.2106 45.4006 83.7647C51.5363 84.3189 57.6964 83.0096 63.0763 80.0079C68.4562 77.0061 72.8057 72.4515 75.5565 66.9391C78.3073 61.4267 79.3316 55.2128 78.4955 49.1092C77.6594 43.0055 75.0018 37.2959 70.8699 32.7263C66.7381 28.1567 61.324 24.9396 55.3351 23.4952C49.3462 22.0508 43.0607 22.4463 37.3001 24.6301C31.5395 26.8138 26.5715 30.6842 23.045 35.7357C22.9341 35.8942 22.7648 36.0023 22.5743 36.036C22.3839 36.0697 22.1877 36.0263 22.0292 35.9154C21.8707 35.8046 21.7626 35.6353 21.7289 35.4448C21.6953 35.2543 21.7386 35.0582 21.8495 34.8997C25.0069 30.3761 29.277 26.7429 34.2479 24.3507C39.2187 21.9585 44.7223 20.888 50.2274 21.2427C55.7325 21.5974 61.0532 23.3652 65.6759 26.3756C70.2986 29.3859 74.0673 33.5371 76.6182 38.4284C79.1689 43.3197 80.4158 48.7861 80.2383 54.2997C80.0608 59.8134 78.465 65.1882 75.6049 69.9053C72.7447 74.6225 68.7169 78.5227 63.9101 81.2294C59.1033 83.9362 53.6799 85.3582 48.1633 85.358Z" fill="#AF6900" fill-opacity="1.000000" fill-rule="nonzero"/>
	<path id="Vector" d="M27.7518 78.0303C27.6776 77.969 27.6163 77.8939 27.5713 77.8089C27.5262 77.724 27.4984 77.6311 27.4893 77.5354C27.4802 77.4397 27.4899 77.3432 27.5181 77.2513C27.5463 77.1594 27.5923 77.074 27.6536 76.9999C27.7148 76.9258 27.79 76.8644 27.8749 76.8194C27.9598 76.7743 28.0527 76.7464 28.1484 76.7373C28.2441 76.7282 28.3406 76.738 28.4326 76.7662C28.5244 76.7944 28.6099 76.8404 28.684 76.9016C33.439 80.8187 39.2649 83.2106 45.4006 83.7647C51.5363 84.3189 57.6964 83.0096 63.0763 80.0079C68.4562 77.0061 72.8057 72.4515 75.5565 66.9391C78.3073 61.4267 79.3316 55.2128 78.4955 49.1092C77.6594 43.0055 75.0018 37.2959 70.8699 32.7263C66.7381 28.1567 61.324 24.9396 55.3351 23.4952C49.3462 22.0508 43.0607 22.4463 37.3001 24.6301C31.5395 26.8138 26.5715 30.6842 23.045 35.7357C22.9341 35.8942 22.7648 36.0023 22.5743 36.036C22.3839 36.0697 22.1877 36.0263 22.0292 35.9154C21.8707 35.8046 21.7626 35.6353 21.7289 35.4448C21.6953 35.2543 21.7386 35.0582 21.8495 34.8997C25.0069 30.3761 29.277 26.7429 34.2479 24.3507C39.2187 21.9585 44.7223 20.888 50.2274 21.2427C55.7325 21.5974 61.0532 23.3652 65.6759 26.3756C70.2986 29.3859 74.0673 33.5371 76.6182 38.4284C79.1689 43.3197 80.4158 48.7861 80.2383 54.2997C80.0608 59.8134 78.465 65.1882 75.6049 69.9053C72.7447 74.6225 68.7169 78.5227 63.9101 81.2294C59.1033 83.9362 53.6799 85.3582 48.1633 85.358C40.7161 85.3533 33.5015 82.7632 27.7518 78.0303Z" stroke="#AF6900" stroke-opacity="1.000000" stroke-width="0.509851"/>
	<path id="Vector" d="M49.8228 56.2684L32.4419 56.2684C32.2479 56.2684 32.0618 56.1913 31.9246 56.0542C31.7874 55.917 31.7104 55.7309 31.7104 55.5369C31.7104 55.3429 31.7874 55.1568 31.9246 55.0196C32.0618 54.8824 32.2479 54.8054 32.4419 54.8054L49.0913 54.8054L49.0913 34.3771C49.0913 34.1831 49.1684 33.997 49.3056 33.8598C49.4428 33.7226 49.6288 33.6456 49.8228 33.6456C50.0168 33.6456 50.2029 33.7226 50.3401 33.8598C50.4773 33.997 50.5543 34.1831 50.5543 34.3771L50.5543 55.5369C50.5543 55.7309 50.4773 55.917 50.3401 56.0542C50.2029 56.1913 50.0168 56.2684 49.8228 56.2684Z" fill="#AF6900" fill-opacity="1.000000" fill-rule="nonzero"/>
	<path id="Vector" d="M32.4419 56.2684C32.2479 56.2684 32.0618 56.1913 31.9246 56.0542C31.7874 55.917 31.7104 55.7309 31.7104 55.5369C31.7104 55.3429 31.7874 55.1568 31.9246 55.0196C32.0618 54.8824 32.2479 54.8054 32.4419 54.8054L49.0913 54.8054L49.0913 34.3771C49.0913 34.1831 49.1684 33.997 49.3056 33.8598C49.4428 33.7226 49.6288 33.6456 49.8228 33.6456C50.0168 33.6456 50.2029 33.7226 50.3401 33.8598C50.4773 33.997 50.5543 34.1831 50.5543 34.3771L50.5543 55.5369C50.5543 55.7309 50.4773 55.917 50.3401 56.0542C50.2029 56.1913 50.0168 56.2684 49.8228 56.2684L32.4419 56.2684Z" stroke="#AF6900" stroke-opacity="1.000000" stroke-width="0.509851"/>
</svg>
