<svg width="32.431885" height="31.167725" viewBox="0 0 32.4319 31.1677" fill="none" xmlns="http://www.w3.org/2000/svg" xmlns:xlink="http://www.w3.org/1999/xlink">
	<desc>
			Created with Pixso.
	</desc>
	<defs/>
	<path id="Vector" d="M11.7361 29.1174C11.7361 30.2498 10.8182 31.1677 9.68588 31.1677C8.55356 31.1677 7.63562 30.2498 7.63562 29.1174C7.63562 27.9851 8.55356 27.0671 9.68588 27.0671C10.8182 27.0671 11.7361 27.9851 11.7361 29.1174Z" fill="#623D2A" fill-opacity="1.000000" fill-rule="evenodd"/>
	<path id="Vector" d="M24.1926 29.1174C24.1926 30.2498 23.2746 31.1677 22.1423 31.1677C21.01 31.1677 20.092 30.2498 20.092 29.1174C20.092 27.9851 21.01 27.0671 22.1423 27.0671C23.2746 27.0671 24.1926 27.9851 24.1926 29.1174Z" fill="#623D2A" fill-opacity="1.000000" fill-rule="evenodd"/>
	<path id="Vector" d="M15.932 8.38721C15.8905 8.08521 15.8691 7.78076 15.8682 7.47583C15.8691 7.17114 15.8905 6.8667 15.932 6.5647L5.3396 6.5647L5.93188 8.38721L15.932 8.38721Z" fill="#623D2A" fill-opacity="1.000000" fill-rule="nonzero"/>
	<path id="Vector" d="M24.3265 16.5L23.9438 16.5L23.3541 19.3218L9.68573 19.3218L5.52139 6.13623C5.47638 5.99634 5.39813 5.86938 5.29343 5.76636C5.18869 5.66309 5.06058 5.58691 4.91998 5.54395L1.18396 4.39575C1.06909 4.3606 0.948364 4.34814 0.828735 4.35962C0.709106 4.37085 0.592865 4.40576 0.486664 4.46191C0.272217 4.57568 0.111664 4.76978 0.0403748 5.00171C-0.0309143 5.23389 -0.00714111 5.48462 0.106506 5.69922C0.220154 5.91357 0.414337 6.07422 0.646332 6.14551L3.91763 7.14771L8.10019 20.3606L6.60577 21.5815L6.4873 21.7C6.11765 22.126 5.90814 22.6677 5.89484 23.2314C5.88153 23.7954 6.06528 24.3462 6.4144 24.7891C6.66278 25.0911 6.97836 25.3308 7.33597 25.489C7.69357 25.6472 8.08322 25.7197 8.47379 25.7004L23.6822 25.7004C23.9239 25.7004 24.1556 25.6042 24.3265 25.4333C24.4974 25.2625 24.5934 25.0308 24.5934 24.7891C24.5934 24.5474 24.4974 24.3157 24.3265 24.1448C24.1556 23.9739 23.9239 23.8779 23.6822 23.8779L8.328 23.8779C8.22305 23.8743 8.12082 23.8438 8.03116 23.7891C7.9415 23.7344 7.86743 23.6577 7.81616 23.5659C7.76486 23.4744 7.73804 23.3711 7.73831 23.2661C7.73859 23.1611 7.76593 23.0581 7.81769 22.9666L10.0138 21.1443L24.0831 21.1443C24.2938 21.1494 24.4997 21.0813 24.6658 20.9517C24.832 20.8223 24.9481 20.6389 24.9944 20.4333L25.8756 16.3269C25.3675 16.4434 24.8478 16.5015 24.3265 16.5Z" fill="#623D2A" fill-opacity="1.000000" fill-rule="nonzero"/>
	<path id="Vector" d="M32.4319 7.5C32.4319 11.6421 29.074 15 24.9319 15C20.7897 15 17.4319 11.6421 17.4319 7.5C17.4319 3.35791 20.7897 0 24.9319 0C29.074 0 32.4319 3.35791 32.4319 7.5Z" fill="#9E845C" fill-opacity="1.000000" fill-rule="evenodd"/>
	<path id="0" d="M24.6019 11.145C23.7486 11.145 23.1086 10.8517 22.6819 10.265C22.2619 9.67167 22.0519 8.90833 22.0519 7.975C22.0519 7.32167 22.1719 6.75167 22.4119 6.265C22.6519 5.77167 22.9786 5.395 23.3919 5.135C23.8052 4.875 24.2586 4.745 24.7519 4.745C25.6186 4.745 26.2519 5.025 26.6519 5.585C27.0519 6.13833 27.2519 6.89833 27.2519 7.865C27.2519 8.51167 27.1352 9.085 26.9019 9.585C26.6752 10.0783 26.3586 10.4617 25.9519 10.735C25.5519 11.0083 25.1019 11.145 24.6019 11.145ZM24.6419 10.635C25.6352 10.635 26.1319 9.745 26.1319 7.965C26.1319 7.09833 26.0186 6.43167 25.7919 5.965C25.5719 5.49833 25.1986 5.265 24.6719 5.265C24.1586 5.265 23.7786 5.48833 23.5319 5.935C23.2852 6.375 23.1619 7.00833 23.1619 7.835C23.1619 8.68167 23.2786 9.36167 23.5119 9.875C23.7519 10.3817 24.1286 10.635 24.6419 10.635Z" fill="#FFFFFF" fill-opacity="1.000000" fill-rule="evenodd"/>
</svg>
