<svg width="31.172058" height="30.071777" viewBox="0 0 31.1721 30.0718" fill="none" xmlns="http://www.w3.org/2000/svg" xmlns:xlink="http://www.w3.org/1999/xlink">
	<desc>
			Created with Pixso.
	</desc>
	<defs/>
	<path id="Vector" d="M12.8878 27.9238C12.8878 29.1101 11.9261 30.0718 10.7398 30.0718C9.55353 30.0718 8.59186 29.1101 8.59186 27.9238C8.59186 26.7375 9.55353 25.7759 10.7398 25.7759C11.9261 25.7759 12.8878 26.7375 12.8878 27.9238Z" fill="#AF6900" fill-opacity="1.000000" fill-rule="evenodd"/>
	<path id="Vector" d="M27.9237 27.9238C27.9237 29.1101 26.962 30.0718 25.7757 30.0718C24.5894 30.0718 23.6277 29.1101 23.6277 27.9238C23.6277 26.7375 24.5894 25.7759 25.7757 25.7759C26.962 25.7759 27.9237 26.7375 27.9237 27.9238Z" fill="#AF6900" fill-opacity="1.000000" fill-rule="evenodd"/>
	<path id="Vector" d="M30.0717 5.37012L6.25061 5.37012L5.36993 0.859375C5.3197 0.613159 5.18475 0.392334 4.98853 0.235352C4.7923 0.0783691 4.54718 -0.00488281 4.29596 0.000244141L0 0.000244141L0 2.14819L3.41528 2.14819L7.51794 22.7688C7.56812 23.015 7.70312 23.2358 7.89935 23.3928C8.09558 23.5498 8.34064 23.6331 8.59192 23.6279L27.9237 23.6279L27.9237 21.48L9.4726 21.48L8.59192 17.1841L27.9237 17.1841C28.1719 17.1901 28.4147 17.11 28.6105 16.9572C28.8063 16.8044 28.9431 16.5886 28.9977 16.3463L31.1456 6.68042C31.1816 6.52112 31.1808 6.35559 31.1432 6.19666C31.1056 6.0376 31.0322 5.88928 30.9286 5.76294C30.8251 5.6366 30.6941 5.53564 30.5456 5.46753C30.3971 5.39941 30.235 5.36609 30.0717 5.37012ZM27.0645 15.036L8.18378 15.036L6.68024 7.51819L28.7292 7.51819L27.0645 15.036Z" fill="#AF6900" fill-opacity="1.000000" fill-rule="nonzero"/>
</svg>
