<svg width="20.671448" height="16.537109" viewBox="0 0 20.6714 16.5371" fill="none" xmlns="http://www.w3.org/2000/svg" xmlns:xlink="http://www.w3.org/1999/xlink">
	<desc>
			Created with Pixso.
	</desc>
	<defs/>
	<path id="Vector" d="M20.6714 1.95801C19.9113 2.28955 19.0947 2.51367 18.2361 2.61487C19.1119 2.09875 19.7838 1.27966 20.1006 0.304688C19.2812 0.783203 18.3736 1.13086 17.4077 1.31726C16.6339 0.507202 15.5323 0 14.3123 0C11.9708 0 10.0717 1.86938 10.0717 4.1759C10.0717 4.5022 10.1099 4.81934 10.181 5.12585C6.65497 4.95117 3.53143 3.28882 1.43933 0.76355C1.0752 1.38184 0.865784 2.09875 0.865784 2.86218C0.865784 4.31042 1.61505 5.58911 2.75214 6.3374C2.05658 6.31506 1.40289 6.12769 0.831177 5.81494L0.831177 5.86877C0.831177 7.89136 2.29236 9.57874 4.23334 9.96228C3.87646 10.0573 3.50232 10.1074 3.11627 10.1074C2.84314 10.1074 2.57642 10.0824 2.31787 10.0339C2.85773 11.6918 4.42365 12.8998 6.27991 12.932C4.82782 14.0522 2.99884 14.7198 1.01233 14.7198C0.670044 14.7198 0.332275 14.7001 0 14.6616C1.87726 15.8472 4.1059 16.5371 6.50024 16.5371C14.3023 16.5371 18.5675 10.1764 18.5675 4.65991C18.5675 4.48059 18.563 4.29968 18.5548 4.12036C19.3832 3.53076 20.1025 2.79688 20.6696 1.96069L20.6714 1.95801Z" fill="#AF6900" fill-opacity="1.000000" fill-rule="nonzero"/>
</svg>
